<mxfile host="app.diagrams.net" modified="2023-05-06T19:02:11.272Z" agent="Mozilla/5.0 (Windows NT 10.0; Win64; x64) AppleWebKit/537.36 (KHTML, like Gecko) Chrome/112.0.0.0 Safari/537.36" etag="tljgA9meBMe-lqJOCVNe" version="21.2.9" type="device">
  <diagram id="C5RBs43oDa-KdzZeNtuy" name="Page-1">
    <mxGraphModel dx="2800" dy="3633" grid="1" gridSize="10" guides="1" tooltips="1" connect="1" arrows="1" fold="1" page="1" pageScale="1" pageWidth="827" pageHeight="1169" math="0" shadow="0">
      <root>
        <mxCell id="WIyWlLk6GJQsqaUBKTNV-0" />
        <mxCell id="WIyWlLk6GJQsqaUBKTNV-1" parent="WIyWlLk6GJQsqaUBKTNV-0" />
        <mxCell id="LxXwSrXVg-sv-qg34Zbh-37" value="ReminderManager" style="swimlane;fontStyle=1;align=center;verticalAlign=top;childLayout=stackLayout;horizontal=1;startSize=26;horizontalStack=0;resizeParent=1;resizeParentMax=0;resizeLast=0;collapsible=1;marginBottom=0;whiteSpace=wrap;html=1;" parent="WIyWlLk6GJQsqaUBKTNV-1" vertex="1">
          <mxGeometry x="1080" y="-1828" width="250" height="150" as="geometry" />
        </mxCell>
        <mxCell id="LxXwSrXVg-sv-qg34Zbh-38" value="-reminders:List&amp;lt;Reminder&amp;gt;" style="text;strokeColor=none;fillColor=none;align=left;verticalAlign=top;spacingLeft=4;spacingRight=4;overflow=hidden;rotatable=0;points=[[0,0.5],[1,0.5]];portConstraint=eastwest;whiteSpace=wrap;html=1;" parent="LxXwSrXVg-sv-qg34Zbh-37" vertex="1">
          <mxGeometry y="26" width="250" height="26" as="geometry" />
        </mxCell>
        <mxCell id="LxXwSrXVg-sv-qg34Zbh-39" value="" style="line;strokeWidth=1;fillColor=none;align=left;verticalAlign=middle;spacingTop=-1;spacingLeft=3;spacingRight=3;rotatable=0;labelPosition=right;points=[];portConstraint=eastwest;strokeColor=inherit;" parent="LxXwSrXVg-sv-qg34Zbh-37" vertex="1">
          <mxGeometry y="52" width="250" height="8" as="geometry" />
        </mxCell>
        <mxCell id="LxXwSrXVg-sv-qg34Zbh-40" value="+ReminderManager()&lt;br&gt;+createReminder(reminder:Reminder):void&lt;br&gt;+deleteReminder(reminder:Reminder):void&lt;br&gt;+checkRemindersDue():void" style="text;strokeColor=none;fillColor=none;align=left;verticalAlign=top;spacingLeft=4;spacingRight=4;overflow=hidden;rotatable=0;points=[[0,0.5],[1,0.5]];portConstraint=eastwest;whiteSpace=wrap;html=1;" parent="LxXwSrXVg-sv-qg34Zbh-37" vertex="1">
          <mxGeometry y="60" width="250" height="90" as="geometry" />
        </mxCell>
        <mxCell id="LxXwSrXVg-sv-qg34Zbh-41" value="Reminder" style="swimlane;fontStyle=1;align=center;verticalAlign=top;childLayout=stackLayout;horizontal=1;startSize=26;horizontalStack=0;resizeParent=1;resizeParentMax=0;resizeLast=0;collapsible=1;marginBottom=0;whiteSpace=wrap;html=1;" parent="WIyWlLk6GJQsqaUBKTNV-1" vertex="1">
          <mxGeometry x="920" y="-1487" width="410" height="160" as="geometry" />
        </mxCell>
        <mxCell id="LxXwSrXVg-sv-qg34Zbh-42" value="-id:int&lt;br&gt;-title:String&lt;br&gt;-message:string&lt;br&gt;-date:Date&lt;br&gt;-client:Client&lt;br&gt;-TypeOfreminder:enum" style="text;strokeColor=none;fillColor=none;align=left;verticalAlign=top;spacingLeft=4;spacingRight=4;overflow=hidden;rotatable=0;points=[[0,0.5],[1,0.5]];portConstraint=eastwest;whiteSpace=wrap;html=1;" parent="LxXwSrXVg-sv-qg34Zbh-41" vertex="1">
          <mxGeometry y="26" width="410" height="94" as="geometry" />
        </mxCell>
        <mxCell id="LxXwSrXVg-sv-qg34Zbh-43" value="" style="line;strokeWidth=1;fillColor=none;align=left;verticalAlign=middle;spacingTop=-1;spacingLeft=3;spacingRight=3;rotatable=0;labelPosition=right;points=[];portConstraint=eastwest;strokeColor=inherit;" parent="LxXwSrXVg-sv-qg34Zbh-41" vertex="1">
          <mxGeometry y="120" width="410" height="8" as="geometry" />
        </mxCell>
        <mxCell id="LxXwSrXVg-sv-qg34Zbh-44" value="+Reminder(title:String,message:String,date:Date,client:Client,Type:enum)" style="text;strokeColor=none;fillColor=none;align=left;verticalAlign=top;spacingLeft=4;spacingRight=4;overflow=hidden;rotatable=0;points=[[0,0.5],[1,0.5]];portConstraint=eastwest;whiteSpace=wrap;html=1;" parent="LxXwSrXVg-sv-qg34Zbh-41" vertex="1">
          <mxGeometry y="128" width="410" height="32" as="geometry" />
        </mxCell>
        <mxCell id="LxXwSrXVg-sv-qg34Zbh-49" value="Client" style="swimlane;fontStyle=1;align=center;verticalAlign=top;childLayout=stackLayout;horizontal=1;startSize=26;horizontalStack=0;resizeParent=1;resizeParentMax=0;resizeLast=0;collapsible=1;marginBottom=0;whiteSpace=wrap;html=1;" parent="WIyWlLk6GJQsqaUBKTNV-1" vertex="1">
          <mxGeometry x="1660" y="-1496" width="460" height="480" as="geometry" />
        </mxCell>
        <mxCell id="LxXwSrXVg-sv-qg34Zbh-50" value="-clientID:int&lt;br&gt;-firstName:String&lt;br&gt;-lastName:String&lt;br&gt;-email:String&lt;br&gt;-Phone:String&lt;br&gt;-accountFacade:accountFacade&lt;br&gt;-accounts:list&amp;lt;Account&amp;gt;&lt;br&gt;-credicards:list&amp;lt;CreditCard&amp;gt;&lt;br&gt;-requests:List&amp;lt;Request&amp;gt;&lt;br&gt;--loans:List&amp;lt;loan&amp;gt;" style="text;strokeColor=none;fillColor=none;align=left;verticalAlign=top;spacingLeft=4;spacingRight=4;overflow=hidden;rotatable=0;points=[[0,0.5],[1,0.5]];portConstraint=eastwest;whiteSpace=wrap;html=1;" parent="LxXwSrXVg-sv-qg34Zbh-49" vertex="1">
          <mxGeometry y="26" width="460" height="164" as="geometry" />
        </mxCell>
        <mxCell id="LxXwSrXVg-sv-qg34Zbh-51" value="" style="line;strokeWidth=1;fillColor=none;align=left;verticalAlign=middle;spacingTop=-1;spacingLeft=3;spacingRight=3;rotatable=0;labelPosition=right;points=[];portConstraint=eastwest;strokeColor=inherit;" parent="LxXwSrXVg-sv-qg34Zbh-49" vertex="1">
          <mxGeometry y="190" width="460" height="8" as="geometry" />
        </mxCell>
        <mxCell id="LxXwSrXVg-sv-qg34Zbh-52" value="+Client(id: int, fname: String, lName: strign, email: String, phone: String, accounts: List, cards: List, requests: List)&lt;br&gt;+register(username:String,password:String):void&lt;br&gt;+login(username:String,password:String):void&lt;br&gt;+logout():void&lt;br style=&quot;border-color: var(--border-color);&quot;&gt;+closeAccount():void&lt;br style=&quot;border-color: var(--border-color);&quot;&gt;+createAccount(type:String):void&lt;br&gt;+requestforCreditCard(ClientID:int):void&lt;br&gt;+requestforLoan(clientId:int,loanType:enum):void&lt;br&gt;+fileComplain(clientId:int,description:String):void&lt;br&gt;+updateAnnouncments(notification Notification):void&lt;br&gt;+update(notification Notification):void&lt;br&gt;+setReminder(title:String,message:String,date:Date,client:Client,Type:String):void&lt;br&gt;+recieveReminder():Reminder&lt;br&gt;+reportIssue(): void&lt;br&gt;+viewAllTransactions():void&lt;br&gt;+viewCreditCardTransactions(): void&lt;br&gt;+veiwAccountTransactions(): void" style="text;strokeColor=none;fillColor=none;align=left;verticalAlign=top;spacingLeft=4;spacingRight=4;overflow=hidden;rotatable=0;points=[[0,0.5],[1,0.5]];portConstraint=eastwest;whiteSpace=wrap;html=1;" parent="LxXwSrXVg-sv-qg34Zbh-49" vertex="1">
          <mxGeometry y="198" width="460" height="282" as="geometry" />
        </mxCell>
        <mxCell id="LxXwSrXVg-sv-qg34Zbh-63" value="&lt;font style=&quot;font-size: 19px;&quot;&gt;*&lt;/font&gt;" style="text;html=1;align=center;verticalAlign=middle;resizable=0;points=[];autosize=1;strokeColor=none;fillColor=none;" parent="WIyWlLk6GJQsqaUBKTNV-1" vertex="1">
          <mxGeometry x="1211" y="-1527" width="30" height="40" as="geometry" />
        </mxCell>
        <mxCell id="LxXwSrXVg-sv-qg34Zbh-64" value="" style="endArrow=none;html=1;edgeStyle=orthogonalEdgeStyle;rounded=0;exitX=1.008;exitY=0.34;exitDx=0;exitDy=0;exitPerimeter=0;entryX=-0.008;entryY=0.213;entryDx=0;entryDy=0;entryPerimeter=0;" parent="WIyWlLk6GJQsqaUBKTNV-1" source="LxXwSrXVg-sv-qg34Zbh-42" target="LxXwSrXVg-sv-qg34Zbh-50" edge="1">
          <mxGeometry relative="1" as="geometry">
            <mxPoint x="1390" y="-1440" as="sourcePoint" />
            <mxPoint x="1610" y="-1435" as="targetPoint" />
            <Array as="points">
              <mxPoint x="1455" y="-1439" />
              <mxPoint x="1455" y="-1434" />
              <mxPoint x="1610" y="-1434" />
            </Array>
          </mxGeometry>
        </mxCell>
        <mxCell id="LxXwSrXVg-sv-qg34Zbh-65" value="&lt;font style=&quot;font-size: 16px;&quot;&gt;0..*&lt;/font&gt;" style="edgeLabel;resizable=0;html=1;align=left;verticalAlign=bottom;" parent="LxXwSrXVg-sv-qg34Zbh-64" connectable="0" vertex="1">
          <mxGeometry x="-1" relative="1" as="geometry" />
        </mxCell>
        <mxCell id="LxXwSrXVg-sv-qg34Zbh-66" value="&lt;font style=&quot;font-size: 14px;&quot;&gt;1&lt;/font&gt;" style="edgeLabel;resizable=0;html=1;align=right;verticalAlign=bottom;" parent="LxXwSrXVg-sv-qg34Zbh-64" connectable="0" vertex="1">
          <mxGeometry x="1" relative="1" as="geometry" />
        </mxCell>
        <mxCell id="LxXwSrXVg-sv-qg34Zbh-67" value="" style="endArrow=block;startArrow=block;endFill=1;startFill=1;html=1;rounded=0;exitX=1.03;exitY=0.384;exitDx=0;exitDy=0;exitPerimeter=0;" parent="WIyWlLk6GJQsqaUBKTNV-1" source="LxXwSrXVg-sv-qg34Zbh-40" edge="1">
          <mxGeometry width="160" relative="1" as="geometry">
            <mxPoint x="1410" y="-1570.59" as="sourcePoint" />
            <mxPoint x="1720" y="-1500" as="targetPoint" />
          </mxGeometry>
        </mxCell>
        <mxCell id="LxXwSrXVg-sv-qg34Zbh-68" value="&lt;font style=&quot;font-size: 16px;&quot;&gt;1&lt;/font&gt;" style="text;html=1;align=center;verticalAlign=middle;resizable=0;points=[];autosize=1;strokeColor=none;fillColor=none;" parent="WIyWlLk6GJQsqaUBKTNV-1" vertex="1">
          <mxGeometry x="1355" y="-1762" width="30" height="30" as="geometry" />
        </mxCell>
        <mxCell id="LxXwSrXVg-sv-qg34Zbh-69" value="&lt;font style=&quot;font-size: 17px;&quot;&gt;0..*&lt;/font&gt;" style="text;html=1;align=center;verticalAlign=middle;resizable=0;points=[];autosize=1;strokeColor=none;fillColor=none;" parent="WIyWlLk6GJQsqaUBKTNV-1" vertex="1">
          <mxGeometry x="1705" y="-1542" width="50" height="30" as="geometry" />
        </mxCell>
        <mxCell id="LxXwSrXVg-sv-qg34Zbh-70" value="" style="endArrow=diamondThin;endFill=1;endSize=24;html=1;rounded=0;exitX=0.822;exitY=-0.011;exitDx=0;exitDy=0;exitPerimeter=0;" parent="WIyWlLk6GJQsqaUBKTNV-1" source="LxXwSrXVg-sv-qg34Zbh-41" edge="1">
          <mxGeometry width="160" relative="1" as="geometry">
            <mxPoint x="1125" y="-1630" as="sourcePoint" />
            <mxPoint x="1240" y="-1670" as="targetPoint" />
          </mxGeometry>
        </mxCell>
        <mxCell id="LxXwSrXVg-sv-qg34Zbh-71" value="1" style="text;html=1;align=center;verticalAlign=middle;resizable=0;points=[];autosize=1;strokeColor=none;fillColor=none;" parent="WIyWlLk6GJQsqaUBKTNV-1" vertex="1">
          <mxGeometry x="1195" y="-1672" width="30" height="30" as="geometry" />
        </mxCell>
        <mxCell id="LxXwSrXVg-sv-qg34Zbh-76" value="Banker" style="swimlane;fontStyle=1;align=center;verticalAlign=top;childLayout=stackLayout;horizontal=1;startSize=26;horizontalStack=0;resizeParent=1;resizeParentMax=0;resizeLast=0;collapsible=1;marginBottom=0;whiteSpace=wrap;html=1;" parent="WIyWlLk6GJQsqaUBKTNV-1" vertex="1">
          <mxGeometry x="2360" y="-1720" width="250" height="200" as="geometry" />
        </mxCell>
        <mxCell id="LxXwSrXVg-sv-qg34Zbh-77" value="-name:String&lt;br&gt;-BankerId:String&lt;br&gt;-email:String&lt;br&gt;-phoneno:String" style="text;strokeColor=none;fillColor=none;align=left;verticalAlign=top;spacingLeft=4;spacingRight=4;overflow=hidden;rotatable=0;points=[[0,0.5],[1,0.5]];portConstraint=eastwest;whiteSpace=wrap;html=1;" parent="LxXwSrXVg-sv-qg34Zbh-76" vertex="1">
          <mxGeometry y="26" width="250" height="74" as="geometry" />
        </mxCell>
        <mxCell id="LxXwSrXVg-sv-qg34Zbh-78" value="" style="line;strokeWidth=1;fillColor=none;align=left;verticalAlign=middle;spacingTop=-1;spacingLeft=3;spacingRight=3;rotatable=0;labelPosition=right;points=[];portConstraint=eastwest;strokeColor=inherit;" parent="LxXwSrXVg-sv-qg34Zbh-76" vertex="1">
          <mxGeometry y="100" width="250" height="8" as="geometry" />
        </mxCell>
        <mxCell id="LxXwSrXVg-sv-qg34Zbh-79" value="+Banker(name: String, id: String, email: String, phone: String&lt;br&gt;+approveReq(request:Request):void&lt;br&gt;+RejectReq(request:Request):void&lt;br&gt;+solveIssue( issue:financial issue ): void&amp;nbsp;" style="text;strokeColor=none;fillColor=none;align=left;verticalAlign=top;spacingLeft=4;spacingRight=4;overflow=hidden;rotatable=0;points=[[0,0.5],[1,0.5]];portConstraint=eastwest;whiteSpace=wrap;html=1;" parent="LxXwSrXVg-sv-qg34Zbh-76" vertex="1">
          <mxGeometry y="108" width="250" height="92" as="geometry" />
        </mxCell>
        <mxCell id="LxXwSrXVg-sv-qg34Zbh-84" value="Request" style="swimlane;fontStyle=1;align=center;verticalAlign=top;childLayout=stackLayout;horizontal=1;startSize=26;horizontalStack=0;resizeParent=1;resizeParentMax=0;resizeLast=0;collapsible=1;marginBottom=0;whiteSpace=wrap;html=1;" parent="WIyWlLk6GJQsqaUBKTNV-1" vertex="1">
          <mxGeometry x="2420" y="-1350" width="160" height="150" as="geometry" />
        </mxCell>
        <mxCell id="LxXwSrXVg-sv-qg34Zbh-85" value="-status:enum&lt;br&gt;-type:String&lt;br&gt;-clientID:int" style="text;strokeColor=none;fillColor=none;align=left;verticalAlign=top;spacingLeft=4;spacingRight=4;overflow=hidden;rotatable=0;points=[[0,0.5],[1,0.5]];portConstraint=eastwest;whiteSpace=wrap;html=1;" parent="LxXwSrXVg-sv-qg34Zbh-84" vertex="1">
          <mxGeometry y="26" width="160" height="64" as="geometry" />
        </mxCell>
        <mxCell id="LxXwSrXVg-sv-qg34Zbh-86" value="" style="line;strokeWidth=1;fillColor=none;align=left;verticalAlign=middle;spacingTop=-1;spacingLeft=3;spacingRight=3;rotatable=0;labelPosition=right;points=[];portConstraint=eastwest;strokeColor=inherit;" parent="LxXwSrXVg-sv-qg34Zbh-84" vertex="1">
          <mxGeometry y="90" width="160" height="8" as="geometry" />
        </mxCell>
        <mxCell id="LxXwSrXVg-sv-qg34Zbh-87" value="+Request(status: enum, type: String, id: int)&lt;br&gt;+submitReq():void" style="text;strokeColor=none;fillColor=none;align=left;verticalAlign=top;spacingLeft=4;spacingRight=4;overflow=hidden;rotatable=0;points=[[0,0.5],[1,0.5]];portConstraint=eastwest;whiteSpace=wrap;html=1;" parent="LxXwSrXVg-sv-qg34Zbh-84" vertex="1">
          <mxGeometry y="98" width="160" height="52" as="geometry" />
        </mxCell>
        <mxCell id="LxXwSrXVg-sv-qg34Zbh-95" value="&lt;font style=&quot;font-size: 14px;&quot;&gt;0..*&lt;/font&gt;" style="text;html=1;align=center;verticalAlign=middle;resizable=0;points=[];autosize=1;strokeColor=none;fillColor=none;" parent="WIyWlLk6GJQsqaUBKTNV-1" vertex="1">
          <mxGeometry x="2370" y="-1302" width="40" height="30" as="geometry" />
        </mxCell>
        <mxCell id="LxXwSrXVg-sv-qg34Zbh-96" value="&lt;font style=&quot;font-size: 13px;&quot;&gt;1&lt;/font&gt;" style="text;html=1;align=center;verticalAlign=middle;resizable=0;points=[];autosize=1;strokeColor=none;fillColor=none;" parent="WIyWlLk6GJQsqaUBKTNV-1" vertex="1">
          <mxGeometry x="2125" y="-1302" width="30" height="30" as="geometry" />
        </mxCell>
        <mxCell id="LxXwSrXVg-sv-qg34Zbh-97" value="Use" style="endArrow=open;endSize=12;dashed=1;html=1;rounded=0;entryX=0.482;entryY=1.103;entryDx=0;entryDy=0;entryPerimeter=0;exitX=0.387;exitY=0;exitDx=0;exitDy=0;exitPerimeter=0;" parent="WIyWlLk6GJQsqaUBKTNV-1" source="LxXwSrXVg-sv-qg34Zbh-84" target="LxXwSrXVg-sv-qg34Zbh-79" edge="1">
          <mxGeometry width="160" relative="1" as="geometry">
            <mxPoint x="2390" y="-1400" as="sourcePoint" />
            <mxPoint x="2550" y="-1400" as="targetPoint" />
          </mxGeometry>
        </mxCell>
        <mxCell id="LxXwSrXVg-sv-qg34Zbh-98" value="Use" style="endArrow=open;endSize=12;dashed=1;html=1;rounded=0;exitX=0.007;exitY=0.01;exitDx=0;exitDy=0;exitPerimeter=0;" parent="WIyWlLk6GJQsqaUBKTNV-1" source="LxXwSrXVg-sv-qg34Zbh-85" edge="1">
          <mxGeometry width="160" relative="1" as="geometry">
            <mxPoint x="2320" y="-1293" as="sourcePoint" />
            <mxPoint x="2130" y="-1320" as="targetPoint" />
          </mxGeometry>
        </mxCell>
        <mxCell id="LxXwSrXVg-sv-qg34Zbh-99" value="" style="endArrow=none;html=1;edgeStyle=orthogonalEdgeStyle;rounded=0;entryX=0.007;entryY=0.91;entryDx=0;entryDy=0;entryPerimeter=0;" parent="WIyWlLk6GJQsqaUBKTNV-1" target="LxXwSrXVg-sv-qg34Zbh-85" edge="1">
          <mxGeometry relative="1" as="geometry">
            <mxPoint x="2125" y="-1272" as="sourcePoint" />
            <mxPoint x="2285" y="-1272" as="targetPoint" />
          </mxGeometry>
        </mxCell>
        <mxCell id="LxXwSrXVg-sv-qg34Zbh-102" value="" style="endArrow=none;html=1;edgeStyle=orthogonalEdgeStyle;rounded=0;exitX=0.603;exitY=1.141;exitDx=0;exitDy=0;exitPerimeter=0;" parent="WIyWlLk6GJQsqaUBKTNV-1" source="LxXwSrXVg-sv-qg34Zbh-79" edge="1">
          <mxGeometry relative="1" as="geometry">
            <mxPoint x="2520" y="-1530" as="sourcePoint" />
            <mxPoint x="2520" y="-1360" as="targetPoint" />
          </mxGeometry>
        </mxCell>
        <mxCell id="LxXwSrXVg-sv-qg34Zbh-103" value="&lt;font style=&quot;font-size: 14px;&quot;&gt;1&lt;/font&gt;" style="edgeLabel;resizable=0;html=1;align=left;verticalAlign=bottom;" parent="LxXwSrXVg-sv-qg34Zbh-102" connectable="0" vertex="1">
          <mxGeometry x="-1" relative="1" as="geometry" />
        </mxCell>
        <mxCell id="LxXwSrXVg-sv-qg34Zbh-104" value="&lt;font style=&quot;font-size: 16px;&quot;&gt;0..*&lt;/font&gt;" style="edgeLabel;resizable=0;html=1;align=right;verticalAlign=bottom;" parent="LxXwSrXVg-sv-qg34Zbh-102" connectable="0" vertex="1">
          <mxGeometry x="1" relative="1" as="geometry" />
        </mxCell>
        <mxCell id="LxXwSrXVg-sv-qg34Zbh-123" value="&amp;lt;Interface&amp;gt;&lt;br&gt;ObserverforAnnouncments" style="swimlane;fontStyle=0;childLayout=stackLayout;horizontal=1;startSize=26;fillColor=none;horizontalStack=0;resizeParent=1;resizeParentMax=0;resizeLast=0;collapsible=1;marginBottom=0;whiteSpace=wrap;html=1;" parent="WIyWlLk6GJQsqaUBKTNV-1" vertex="1">
          <mxGeometry x="1610" y="-1748" width="230" height="70" as="geometry" />
        </mxCell>
        <mxCell id="LxXwSrXVg-sv-qg34Zbh-124" value="+updateAnnouncments(notification Notification):void" style="text;strokeColor=none;fillColor=none;align=left;verticalAlign=top;spacingLeft=4;spacingRight=4;overflow=hidden;rotatable=0;points=[[0,0.5],[1,0.5]];portConstraint=eastwest;whiteSpace=wrap;html=1;" parent="LxXwSrXVg-sv-qg34Zbh-123" vertex="1">
          <mxGeometry y="26" width="230" height="44" as="geometry" />
        </mxCell>
        <mxCell id="LxXwSrXVg-sv-qg34Zbh-125" value="" style="endArrow=block;dashed=1;endFill=0;endSize=12;html=1;rounded=0;entryX=0.443;entryY=1.158;entryDx=0;entryDy=0;entryPerimeter=0;" parent="WIyWlLk6GJQsqaUBKTNV-1" target="LxXwSrXVg-sv-qg34Zbh-124" edge="1">
          <mxGeometry width="160" relative="1" as="geometry">
            <mxPoint x="1820" y="-1500" as="sourcePoint" />
            <mxPoint x="1820" y="-1630" as="targetPoint" />
          </mxGeometry>
        </mxCell>
        <mxCell id="LxXwSrXVg-sv-qg34Zbh-130" value="bankAnnouncements" style="swimlane;fontStyle=1;align=center;verticalAlign=top;childLayout=stackLayout;horizontal=1;startSize=26;horizontalStack=0;resizeParent=1;resizeParentMax=0;resizeLast=0;collapsible=1;marginBottom=0;whiteSpace=wrap;html=1;" parent="WIyWlLk6GJQsqaUBKTNV-1" vertex="1">
          <mxGeometry x="2658" y="-1750" width="290" height="250" as="geometry" />
        </mxCell>
        <mxCell id="LxXwSrXVg-sv-qg34Zbh-131" value="- description: String&lt;br&gt;-title:String&lt;br&gt;-highImportance: boolean&lt;br&gt;-clients: List&amp;lt;ObserverforAnnouncments&amp;gt;&lt;br&gt;&lt;br&gt;" style="text;strokeColor=none;fillColor=none;align=left;verticalAlign=top;spacingLeft=4;spacingRight=4;overflow=hidden;rotatable=0;points=[[0,0.5],[1,0.5]];portConstraint=eastwest;whiteSpace=wrap;html=1;" parent="LxXwSrXVg-sv-qg34Zbh-130" vertex="1">
          <mxGeometry y="26" width="290" height="74" as="geometry" />
        </mxCell>
        <mxCell id="LxXwSrXVg-sv-qg34Zbh-132" value="" style="line;strokeWidth=1;fillColor=none;align=left;verticalAlign=middle;spacingTop=-1;spacingLeft=3;spacingRight=3;rotatable=0;labelPosition=right;points=[];portConstraint=eastwest;strokeColor=inherit;" parent="LxXwSrXVg-sv-qg34Zbh-130" vertex="1">
          <mxGeometry y="100" width="290" height="8" as="geometry" />
        </mxCell>
        <mxCell id="LxXwSrXVg-sv-qg34Zbh-133" value="+bankAnnouncements(description: String, title: string, highImportance: boolean, clients: List)&lt;br&gt;+ setHighImportance():void&lt;br&gt;+ setDescription() : void&lt;br&gt;+attachObserver(observer:Observer):void&lt;br style=&quot;border-color: var(--border-color);&quot;&gt;+deattach(observer:Observer):void&lt;br style=&quot;border-color: var(--border-color);&quot;&gt;+notify():void" style="text;strokeColor=none;fillColor=none;align=left;verticalAlign=top;spacingLeft=4;spacingRight=4;overflow=hidden;rotatable=0;points=[[0,0.5],[1,0.5]];portConstraint=eastwest;whiteSpace=wrap;html=1;" parent="LxXwSrXVg-sv-qg34Zbh-130" vertex="1">
          <mxGeometry y="108" width="290" height="142" as="geometry" />
        </mxCell>
        <mxCell id="LxXwSrXVg-sv-qg34Zbh-134" value="&amp;lt;Interface&amp;gt;&lt;br&gt;SubjectForAnnouncements" style="swimlane;fontStyle=0;childLayout=stackLayout;horizontal=1;startSize=26;fillColor=none;horizontalStack=0;resizeParent=1;resizeParentMax=0;resizeLast=0;collapsible=1;marginBottom=0;whiteSpace=wrap;html=1;" parent="WIyWlLk6GJQsqaUBKTNV-1" vertex="1">
          <mxGeometry x="2940" y="-1990" width="260" height="154" as="geometry" />
        </mxCell>
        <mxCell id="LxXwSrXVg-sv-qg34Zbh-135" value="+attachObserver(observer:Observer):void&lt;br&gt;+deattach(observer:Observer):void&lt;br&gt;+notify():void" style="text;strokeColor=none;fillColor=none;align=left;verticalAlign=top;spacingLeft=4;spacingRight=4;overflow=hidden;rotatable=0;points=[[0,0.5],[1,0.5]];portConstraint=eastwest;whiteSpace=wrap;html=1;" parent="LxXwSrXVg-sv-qg34Zbh-134" vertex="1">
          <mxGeometry y="26" width="260" height="64" as="geometry" />
        </mxCell>
        <mxCell id="LxXwSrXVg-sv-qg34Zbh-136" value="+attachObserver(observer:Observer):void&lt;br&gt;+deattach(observer:Observer):void&lt;br&gt;+notify():void" style="text;strokeColor=none;fillColor=none;align=left;verticalAlign=top;spacingLeft=4;spacingRight=4;overflow=hidden;rotatable=0;points=[[0,0.5],[1,0.5]];portConstraint=eastwest;whiteSpace=wrap;html=1;" parent="LxXwSrXVg-sv-qg34Zbh-134" vertex="1">
          <mxGeometry y="90" width="260" height="64" as="geometry" />
        </mxCell>
        <mxCell id="LxXwSrXVg-sv-qg34Zbh-137" value="" style="endArrow=block;dashed=1;endFill=0;endSize=12;html=1;rounded=0;exitX=0.5;exitY=0;exitDx=0;exitDy=0;entryX=0.635;entryY=0.969;entryDx=0;entryDy=0;entryPerimeter=0;" parent="WIyWlLk6GJQsqaUBKTNV-1" source="LxXwSrXVg-sv-qg34Zbh-130" target="LxXwSrXVg-sv-qg34Zbh-136" edge="1">
          <mxGeometry width="160" relative="1" as="geometry">
            <mxPoint x="3035" y="-1798" as="sourcePoint" />
            <mxPoint x="3195" y="-1798" as="targetPoint" />
          </mxGeometry>
        </mxCell>
        <mxCell id="LxXwSrXVg-sv-qg34Zbh-138" value="&amp;lt;Interface&amp;gt;&lt;br&gt;Observer" style="swimlane;fontStyle=0;childLayout=stackLayout;horizontal=1;startSize=26;fillColor=none;horizontalStack=0;resizeParent=1;resizeParentMax=0;resizeLast=0;collapsible=1;marginBottom=0;whiteSpace=wrap;html=1;" parent="WIyWlLk6GJQsqaUBKTNV-1" vertex="1">
          <mxGeometry x="1860" y="-1742" width="230" height="70" as="geometry" />
        </mxCell>
        <mxCell id="LxXwSrXVg-sv-qg34Zbh-139" value="+update(notification Notification):void" style="text;strokeColor=none;fillColor=none;align=left;verticalAlign=top;spacingLeft=4;spacingRight=4;overflow=hidden;rotatable=0;points=[[0,0.5],[1,0.5]];portConstraint=eastwest;whiteSpace=wrap;html=1;" parent="LxXwSrXVg-sv-qg34Zbh-138" vertex="1">
          <mxGeometry y="26" width="230" height="44" as="geometry" />
        </mxCell>
        <mxCell id="LxXwSrXVg-sv-qg34Zbh-140" value="" style="endArrow=block;dashed=1;endFill=0;endSize=12;html=1;rounded=0;entryX=0.436;entryY=1.118;entryDx=0;entryDy=0;entryPerimeter=0;" parent="WIyWlLk6GJQsqaUBKTNV-1" target="LxXwSrXVg-sv-qg34Zbh-139" edge="1">
          <mxGeometry width="160" relative="1" as="geometry">
            <mxPoint x="1928" y="-1487" as="sourcePoint" />
            <mxPoint x="1820" y="-1658" as="targetPoint" />
          </mxGeometry>
        </mxCell>
        <mxCell id="LxXwSrXVg-sv-qg34Zbh-150" value="creditCard" style="swimlane;fontStyle=1;align=center;verticalAlign=top;childLayout=stackLayout;horizontal=1;startSize=26;horizontalStack=0;resizeParent=1;resizeParentMax=0;resizeLast=0;collapsible=1;marginBottom=0;whiteSpace=wrap;html=1;" parent="WIyWlLk6GJQsqaUBKTNV-1" vertex="1">
          <mxGeometry x="773" y="-1210" width="320" height="380" as="geometry" />
        </mxCell>
        <mxCell id="LxXwSrXVg-sv-qg34Zbh-151" value="-creditcardpayment:List&amp;lt;CreditCardPayment&amp;gt;&lt;br&gt;-ccv : int&lt;br&gt;-cardNumber: int&lt;br&gt;-client: Client&lt;br&gt;-limit: double&lt;br&gt;-balance: double&lt;br&gt;-status: string&lt;br&gt;-points: int&lt;br&gt;-password : string&amp;nbsp;&lt;br&gt;-depositAndWithdrawList&amp;lt;depositWithdrawTransactions&amp;gt;&lt;br&gt;" style="text;strokeColor=none;fillColor=none;align=left;verticalAlign=top;spacingLeft=4;spacingRight=4;overflow=hidden;rotatable=0;points=[[0,0.5],[1,0.5]];portConstraint=eastwest;whiteSpace=wrap;html=1;" parent="LxXwSrXVg-sv-qg34Zbh-150" vertex="1">
          <mxGeometry y="26" width="320" height="164" as="geometry" />
        </mxCell>
        <mxCell id="LxXwSrXVg-sv-qg34Zbh-152" value="" style="line;strokeWidth=1;fillColor=none;align=left;verticalAlign=middle;spacingTop=-1;spacingLeft=3;spacingRight=3;rotatable=0;labelPosition=right;points=[];portConstraint=eastwest;strokeColor=inherit;" parent="LxXwSrXVg-sv-qg34Zbh-150" vertex="1">
          <mxGeometry y="190" width="320" height="8" as="geometry" />
        </mxCell>
        <mxCell id="LxXwSrXVg-sv-qg34Zbh-153" value="+creditCard(list: List, ccv: int, client: Client, limint: double, balance: double, status: string: points: int, password: string, transactionsList: List)&lt;br&gt;+Suspend(): void&lt;br&gt;+Deactivate(): void&lt;br&gt;+updateInfo(); void&lt;br&gt;+addPoints(amount : int): void&lt;br&gt;+redeemPoints(amount: int): void&lt;br&gt;+viewPoints(): void&lt;br&gt;+viewDebtPayment(():void&lt;br&gt;+depositOrWithdraw(amount: int, type: string, date: Date)" style="text;strokeColor=none;fillColor=none;align=left;verticalAlign=top;spacingLeft=4;spacingRight=4;overflow=hidden;rotatable=0;points=[[0,0.5],[1,0.5]];portConstraint=eastwest;whiteSpace=wrap;html=1;" parent="LxXwSrXVg-sv-qg34Zbh-150" vertex="1">
          <mxGeometry y="198" width="320" height="182" as="geometry" />
        </mxCell>
        <mxCell id="LxXwSrXVg-sv-qg34Zbh-196" value="ThirdPartyPaymentStrategy" style="swimlane;fontStyle=1;align=center;verticalAlign=top;childLayout=stackLayout;horizontal=1;startSize=26;horizontalStack=0;resizeParent=1;resizeParentMax=0;resizeLast=0;collapsible=1;marginBottom=0;whiteSpace=wrap;html=1;" parent="WIyWlLk6GJQsqaUBKTNV-1" vertex="1">
          <mxGeometry x="2660" y="-830" width="290" height="170" as="geometry" />
        </mxCell>
        <mxCell id="LxXwSrXVg-sv-qg34Zbh-197" value="-paymentToken:String&lt;br&gt;-paymentApiKey:String&lt;br&gt;-methodName: String" style="text;strokeColor=none;fillColor=none;align=left;verticalAlign=top;spacingLeft=4;spacingRight=4;overflow=hidden;rotatable=0;points=[[0,0.5],[1,0.5]];portConstraint=eastwest;whiteSpace=wrap;html=1;" parent="LxXwSrXVg-sv-qg34Zbh-196" vertex="1">
          <mxGeometry y="26" width="290" height="64" as="geometry" />
        </mxCell>
        <mxCell id="LxXwSrXVg-sv-qg34Zbh-198" value="" style="line;strokeWidth=1;fillColor=none;align=left;verticalAlign=middle;spacingTop=-1;spacingLeft=3;spacingRight=3;rotatable=0;labelPosition=right;points=[];portConstraint=eastwest;strokeColor=inherit;" parent="LxXwSrXVg-sv-qg34Zbh-196" vertex="1">
          <mxGeometry y="90" width="290" height="10" as="geometry" />
        </mxCell>
        <mxCell id="LxXwSrXVg-sv-qg34Zbh-199" value="+ThirdPartyPaymentStrategy(token: String, apiKey: String)&lt;br&gt;+makePayment(amount:double,recipient:String):void" style="text;strokeColor=none;fillColor=none;align=left;verticalAlign=top;spacingLeft=4;spacingRight=4;overflow=hidden;rotatable=0;points=[[0,0.5],[1,0.5]];portConstraint=eastwest;whiteSpace=wrap;html=1;" parent="LxXwSrXVg-sv-qg34Zbh-196" vertex="1">
          <mxGeometry y="100" width="290" height="70" as="geometry" />
        </mxCell>
        <mxCell id="LxXwSrXVg-sv-qg34Zbh-200" value="bankPaymentStrategy" style="swimlane;fontStyle=1;align=center;verticalAlign=top;childLayout=stackLayout;horizontal=1;startSize=26;horizontalStack=0;resizeParent=1;resizeParentMax=0;resizeLast=0;collapsible=1;marginBottom=0;whiteSpace=wrap;html=1;" parent="WIyWlLk6GJQsqaUBKTNV-1" vertex="1">
          <mxGeometry x="2310" y="-800" width="300" height="132" as="geometry" />
        </mxCell>
        <mxCell id="LxXwSrXVg-sv-qg34Zbh-201" value="-AccountNo:String&lt;br&gt;-RoutingNo.:String" style="text;strokeColor=none;fillColor=none;align=left;verticalAlign=top;spacingLeft=4;spacingRight=4;overflow=hidden;rotatable=0;points=[[0,0.5],[1,0.5]];portConstraint=eastwest;whiteSpace=wrap;html=1;" parent="LxXwSrXVg-sv-qg34Zbh-200" vertex="1">
          <mxGeometry y="26" width="300" height="54" as="geometry" />
        </mxCell>
        <mxCell id="LxXwSrXVg-sv-qg34Zbh-202" value="" style="line;strokeWidth=1;fillColor=none;align=left;verticalAlign=middle;spacingTop=-1;spacingLeft=3;spacingRight=3;rotatable=0;labelPosition=right;points=[];portConstraint=eastwest;strokeColor=inherit;" parent="LxXwSrXVg-sv-qg34Zbh-200" vertex="1">
          <mxGeometry y="80" width="300" height="8" as="geometry" />
        </mxCell>
        <mxCell id="LxXwSrXVg-sv-qg34Zbh-203" value="+bankPaymentStrategy(acc: String, rounting: String)&lt;br&gt;+makePayment(amount:double,recipient:String):void" style="text;strokeColor=none;fillColor=none;align=left;verticalAlign=top;spacingLeft=4;spacingRight=4;overflow=hidden;rotatable=0;points=[[0,0.5],[1,0.5]];portConstraint=eastwest;whiteSpace=wrap;html=1;" parent="LxXwSrXVg-sv-qg34Zbh-200" vertex="1">
          <mxGeometry y="88" width="300" height="44" as="geometry" />
        </mxCell>
        <mxCell id="LxXwSrXVg-sv-qg34Zbh-204" value="&amp;lt;Interface&amp;gt;&lt;br&gt;PaymentyStrategy" style="swimlane;fontStyle=0;childLayout=stackLayout;horizontal=1;startSize=26;fillColor=none;horizontalStack=0;resizeParent=1;resizeParentMax=0;resizeLast=0;collapsible=1;marginBottom=0;whiteSpace=wrap;html=1;" parent="WIyWlLk6GJQsqaUBKTNV-1" vertex="1">
          <mxGeometry x="2650" y="-993" width="300" height="52" as="geometry" />
        </mxCell>
        <mxCell id="LxXwSrXVg-sv-qg34Zbh-205" value="+makePayment(amount:double,recipient:String):void" style="text;strokeColor=none;fillColor=none;align=left;verticalAlign=top;spacingLeft=4;spacingRight=4;overflow=hidden;rotatable=0;points=[[0,0.5],[1,0.5]];portConstraint=eastwest;whiteSpace=wrap;html=1;" parent="LxXwSrXVg-sv-qg34Zbh-204" vertex="1">
          <mxGeometry y="26" width="300" height="26" as="geometry" />
        </mxCell>
        <mxCell id="LxXwSrXVg-sv-qg34Zbh-206" value="" style="endArrow=block;dashed=1;endFill=0;endSize=12;html=1;rounded=0;exitX=0.558;exitY=0.002;exitDx=0;exitDy=0;exitPerimeter=0;entryX=0.205;entryY=0.978;entryDx=0;entryDy=0;entryPerimeter=0;" parent="WIyWlLk6GJQsqaUBKTNV-1" source="LxXwSrXVg-sv-qg34Zbh-200" target="LxXwSrXVg-sv-qg34Zbh-205" edge="1">
          <mxGeometry width="160" relative="1" as="geometry">
            <mxPoint x="2490" y="-920" as="sourcePoint" />
            <mxPoint x="2580" y="-940" as="targetPoint" />
          </mxGeometry>
        </mxCell>
        <mxCell id="LxXwSrXVg-sv-qg34Zbh-207" value="" style="endArrow=block;dashed=1;endFill=0;endSize=12;html=1;rounded=0;entryX=0.54;entryY=0.998;entryDx=0;entryDy=0;entryPerimeter=0;exitX=0.397;exitY=0.004;exitDx=0;exitDy=0;exitPerimeter=0;" parent="WIyWlLk6GJQsqaUBKTNV-1" source="LxXwSrXVg-sv-qg34Zbh-196" target="LxXwSrXVg-sv-qg34Zbh-205" edge="1">
          <mxGeometry width="160" relative="1" as="geometry">
            <mxPoint x="2800" y="-880" as="sourcePoint" />
            <mxPoint x="2750" y="-890" as="targetPoint" />
          </mxGeometry>
        </mxCell>
        <mxCell id="LxXwSrXVg-sv-qg34Zbh-208" value="PaymentContext" style="swimlane;fontStyle=1;align=center;verticalAlign=top;childLayout=stackLayout;horizontal=1;startSize=26;horizontalStack=0;resizeParent=1;resizeParentMax=0;resizeLast=0;collapsible=1;marginBottom=0;whiteSpace=wrap;html=1;" parent="WIyWlLk6GJQsqaUBKTNV-1" vertex="1">
          <mxGeometry x="1590" y="-993" width="470" height="130" as="geometry" />
        </mxCell>
        <mxCell id="LxXwSrXVg-sv-qg34Zbh-209" value="-paymentStrategy:PaymentStrategy" style="text;strokeColor=none;fillColor=none;align=left;verticalAlign=top;spacingLeft=4;spacingRight=4;overflow=hidden;rotatable=0;points=[[0,0.5],[1,0.5]];portConstraint=eastwest;whiteSpace=wrap;html=1;" parent="LxXwSrXVg-sv-qg34Zbh-208" vertex="1">
          <mxGeometry y="26" width="470" height="34" as="geometry" />
        </mxCell>
        <mxCell id="LxXwSrXVg-sv-qg34Zbh-210" value="" style="line;strokeWidth=1;fillColor=none;align=left;verticalAlign=middle;spacingTop=-1;spacingLeft=3;spacingRight=3;rotatable=0;labelPosition=right;points=[];portConstraint=eastwest;strokeColor=inherit;" parent="LxXwSrXVg-sv-qg34Zbh-208" vertex="1">
          <mxGeometry y="60" width="470" height="8" as="geometry" />
        </mxCell>
        <mxCell id="LxXwSrXVg-sv-qg34Zbh-211" value="+PaymentContext(strategy: PaymentStrategy)&lt;br&gt;+setPaymentStrategy(amount:double,paymentStrategy:PaymentStrategy):void&lt;br&gt;+request(amount:double, paymentStrategy:PaymentStrategy):void" style="text;strokeColor=none;fillColor=none;align=left;verticalAlign=top;spacingLeft=4;spacingRight=4;overflow=hidden;rotatable=0;points=[[0,0.5],[1,0.5]];portConstraint=eastwest;whiteSpace=wrap;html=1;" parent="LxXwSrXVg-sv-qg34Zbh-208" vertex="1">
          <mxGeometry y="68" width="470" height="62" as="geometry" />
        </mxCell>
        <mxCell id="LxXwSrXVg-sv-qg34Zbh-212" value="" style="endArrow=diamondThin;endFill=0;endSize=24;html=1;rounded=0;entryX=0.999;entryY=-0.011;entryDx=0;entryDy=0;entryPerimeter=0;exitX=-0.011;exitY=0.192;exitDx=0;exitDy=0;exitPerimeter=0;" parent="WIyWlLk6GJQsqaUBKTNV-1" source="LxXwSrXVg-sv-qg34Zbh-205" target="LxXwSrXVg-sv-qg34Zbh-211" edge="1">
          <mxGeometry width="160" relative="1" as="geometry">
            <mxPoint x="2640" y="-1033" as="sourcePoint" />
            <mxPoint x="2640" y="-900" as="targetPoint" />
          </mxGeometry>
        </mxCell>
        <mxCell id="123oVY50qHvYcSflqY5E-22" value="BillPayment" style="swimlane;fontStyle=1;align=center;verticalAlign=top;childLayout=stackLayout;horizontal=1;startSize=26;horizontalStack=0;resizeParent=1;resizeParentMax=0;resizeLast=0;collapsible=1;marginBottom=0;whiteSpace=wrap;html=1;" parent="WIyWlLk6GJQsqaUBKTNV-1" vertex="1">
          <mxGeometry x="1920" y="-536" width="230" height="350" as="geometry" />
        </mxCell>
        <mxCell id="123oVY50qHvYcSflqY5E-23" value="-isPaid:bool&lt;br&gt;-id:int&lt;br&gt;-payeetNumber:int&lt;br&gt;-amount:double&lt;br&gt;-date:date&lt;br&gt;-observers:List&amp;lt;Observer&amp;gt;&lt;br&gt;-paymentStrategy:PaymentStrategy&lt;br&gt;--status:enum" style="text;strokeColor=none;fillColor=none;align=left;verticalAlign=top;spacingLeft=4;spacingRight=4;overflow=hidden;rotatable=0;points=[[0,0.5],[1,0.5]];portConstraint=eastwest;whiteSpace=wrap;html=1;" parent="123oVY50qHvYcSflqY5E-22" vertex="1">
          <mxGeometry y="26" width="230" height="114" as="geometry" />
        </mxCell>
        <mxCell id="123oVY50qHvYcSflqY5E-24" value="" style="line;strokeWidth=1;fillColor=none;align=left;verticalAlign=middle;spacingTop=-1;spacingLeft=3;spacingRight=3;rotatable=0;labelPosition=right;points=[];portConstraint=eastwest;strokeColor=inherit;" parent="123oVY50qHvYcSflqY5E-22" vertex="1">
          <mxGeometry y="140" width="230" height="20" as="geometry" />
        </mxCell>
        <mxCell id="123oVY50qHvYcSflqY5E-25" value="+BillPayment(isPaid: boolean, id : int, payeeNumber: int, amount; double, date: Date, observers: LIst, strategy: PaymentStrategy)&lt;br&gt;+changeDueDate(date:Date):void&lt;br&gt;+changeAmount(amount:double ):void&lt;br&gt;+makepayment(amount :double)&lt;br&gt;+updateStatus():void&lt;br&gt;+cancelPyment():void&lt;br&gt;+attachObserver(observer:Observer):void&lt;br style=&quot;border-color: var(--border-color);&quot;&gt;+deattach(observer:Observer):void&lt;br style=&quot;border-color: var(--border-color);&quot;&gt;+notify():void\" style="text;strokeColor=none;fillColor=none;align=left;verticalAlign=top;spacingLeft=4;spacingRight=4;overflow=hidden;rotatable=0;points=[[0,0.5],[1,0.5]];portConstraint=eastwest;whiteSpace=wrap;html=1;" parent="123oVY50qHvYcSflqY5E-22" vertex="1">
          <mxGeometry y="160" width="230" height="190" as="geometry" />
        </mxCell>
        <mxCell id="123oVY50qHvYcSflqY5E-26" value="CreditCardPayment" style="swimlane;fontStyle=1;align=center;verticalAlign=top;childLayout=stackLayout;horizontal=1;startSize=26;horizontalStack=0;resizeParent=1;resizeParentMax=0;resizeLast=0;collapsible=1;marginBottom=0;whiteSpace=wrap;html=1;" parent="WIyWlLk6GJQsqaUBKTNV-1" vertex="1">
          <mxGeometry x="2465" y="-446" width="250" height="330" as="geometry" />
        </mxCell>
        <mxCell id="123oVY50qHvYcSflqY5E-27" value="-debtamount:int&lt;br&gt;-isPaid:bool&lt;br&gt;-Id:int&lt;br&gt;-date:Date&lt;br&gt;-creditcard:CreditCard&lt;br&gt;-observers:List&amp;lt;Observer&amp;gt;&lt;br&gt;-paymentStrategy:PaymentStrategy&lt;br&gt;-creditcardtype:Enum&lt;br&gt;-status:enum" style="text;strokeColor=none;fillColor=none;align=left;verticalAlign=top;spacingLeft=4;spacingRight=4;overflow=hidden;rotatable=0;points=[[0,0.5],[1,0.5]];portConstraint=eastwest;whiteSpace=wrap;html=1;" parent="123oVY50qHvYcSflqY5E-26" vertex="1">
          <mxGeometry y="26" width="250" height="134" as="geometry" />
        </mxCell>
        <mxCell id="123oVY50qHvYcSflqY5E-28" value="" style="line;strokeWidth=1;fillColor=none;align=left;verticalAlign=middle;spacingTop=-1;spacingLeft=3;spacingRight=3;rotatable=0;labelPosition=right;points=[];portConstraint=eastwest;strokeColor=inherit;" parent="123oVY50qHvYcSflqY5E-26" vertex="1">
          <mxGeometry y="160" width="250" height="8" as="geometry" />
        </mxCell>
        <mxCell id="123oVY50qHvYcSflqY5E-29" value="+CrditCardPayment(amount: int, isPaid: boolean, id: int, date: Date, card: CreditCard, observers: List, strategy: PaymentStrategy, cardType: enum)&lt;br&gt;+makepayment(amount :double):void&lt;br&gt;+updateStatus(status:enum):void&lt;br&gt;+increaseDebtAmount(amount:double):void&lt;br&gt;+attachObserver(observer:Observer):void&lt;br style=&quot;border-color: var(--border-color);&quot;&gt;+deattach(observer:Observer):void&lt;br style=&quot;border-color: var(--border-color);&quot;&gt;+notify():void" style="text;strokeColor=none;fillColor=none;align=left;verticalAlign=top;spacingLeft=4;spacingRight=4;overflow=hidden;rotatable=0;points=[[0,0.5],[1,0.5]];portConstraint=eastwest;whiteSpace=wrap;html=1;" parent="123oVY50qHvYcSflqY5E-26" vertex="1">
          <mxGeometry y="168" width="250" height="162" as="geometry" />
        </mxCell>
        <mxCell id="123oVY50qHvYcSflqY5E-30" value="Loan" style="swimlane;fontStyle=1;align=center;verticalAlign=top;childLayout=stackLayout;horizontal=1;startSize=26;horizontalStack=0;resizeParent=1;resizeParentMax=0;resizeLast=0;collapsible=1;marginBottom=0;whiteSpace=wrap;html=1;" parent="WIyWlLk6GJQsqaUBKTNV-1" vertex="1">
          <mxGeometry x="2175" y="-428" width="260" height="320" as="geometry" />
        </mxCell>
        <mxCell id="123oVY50qHvYcSflqY5E-31" value="-id:int&lt;br&gt;-amount:double&lt;br&gt;-interestrate:double&lt;br&gt;-LoanType:enum&lt;br&gt;-LoanStatus:enum&lt;br&gt;-duration:int&lt;br&gt;-startDate:Date&lt;br&gt;-endDate:Date&lt;br&gt;-observers:List&amp;lt;Observer&amp;gt;" style="text;strokeColor=none;fillColor=none;align=left;verticalAlign=top;spacingLeft=4;spacingRight=4;overflow=hidden;rotatable=0;points=[[0,0.5],[1,0.5]];portConstraint=eastwest;whiteSpace=wrap;html=1;" parent="123oVY50qHvYcSflqY5E-30" vertex="1">
          <mxGeometry y="26" width="260" height="134" as="geometry" />
        </mxCell>
        <mxCell id="123oVY50qHvYcSflqY5E-32" value="" style="line;strokeWidth=1;fillColor=none;align=left;verticalAlign=middle;spacingTop=-1;spacingLeft=3;spacingRight=3;rotatable=0;labelPosition=right;points=[];portConstraint=eastwest;strokeColor=inherit;" parent="123oVY50qHvYcSflqY5E-30" vertex="1">
          <mxGeometry y="160" width="260" height="8" as="geometry" />
        </mxCell>
        <mxCell id="123oVY50qHvYcSflqY5E-33" value="+Loan(id: int, amount: double, rate: double, type: enum, status: enum, duration: int : start: Date, end: Date, observers: List)&lt;br&gt;+makePayment(amount:double):void&lt;br&gt;+calculateInterest():double&lt;br&gt;+ViewLoan_details():double&lt;br&gt;+calculate_total_payment():double&lt;br&gt;+attachObserver(observer:Observer):void&lt;br style=&quot;border-color: var(--border-color);&quot;&gt;+deattach(observer:Observer):void&lt;br style=&quot;border-color: var(--border-color);&quot;&gt;+notify():void" style="text;strokeColor=none;fillColor=none;align=left;verticalAlign=top;spacingLeft=4;spacingRight=4;overflow=hidden;rotatable=0;points=[[0,0.5],[1,0.5]];portConstraint=eastwest;whiteSpace=wrap;html=1;" parent="123oVY50qHvYcSflqY5E-30" vertex="1">
          <mxGeometry y="168" width="260" height="152" as="geometry" />
        </mxCell>
        <mxCell id="123oVY50qHvYcSflqY5E-34" value="&amp;lt;Interface&amp;gt;&lt;br&gt;Subject" style="swimlane;fontStyle=0;childLayout=stackLayout;horizontal=1;startSize=26;fillColor=none;horizontalStack=0;resizeParent=1;resizeParentMax=0;resizeLast=0;collapsible=1;marginBottom=0;whiteSpace=wrap;html=1;" parent="WIyWlLk6GJQsqaUBKTNV-1" vertex="1">
          <mxGeometry x="2207" y="-645" width="260" height="90" as="geometry" />
        </mxCell>
        <mxCell id="123oVY50qHvYcSflqY5E-35" value="+attachObserver(observer:Observer):void&lt;br&gt;+deattach(observer:Observer):void&lt;br&gt;+notify():void" style="text;strokeColor=none;fillColor=none;align=left;verticalAlign=top;spacingLeft=4;spacingRight=4;overflow=hidden;rotatable=0;points=[[0,0.5],[1,0.5]];portConstraint=eastwest;whiteSpace=wrap;html=1;" parent="123oVY50qHvYcSflqY5E-34" vertex="1">
          <mxGeometry y="26" width="260" height="64" as="geometry" />
        </mxCell>
        <mxCell id="123oVY50qHvYcSflqY5E-36" value="" style="endArrow=block;dashed=1;endFill=0;endSize=12;html=1;rounded=0;exitX=0.75;exitY=0;exitDx=0;exitDy=0;entryX=0.221;entryY=1.005;entryDx=0;entryDy=0;entryPerimeter=0;" parent="WIyWlLk6GJQsqaUBKTNV-1" source="123oVY50qHvYcSflqY5E-22" edge="1" target="123oVY50qHvYcSflqY5E-35">
          <mxGeometry width="160" relative="1" as="geometry">
            <mxPoint x="2027.12" y="-414.4000000000001" as="sourcePoint" />
            <mxPoint x="2315" y="-535" as="targetPoint" />
          </mxGeometry>
        </mxCell>
        <mxCell id="123oVY50qHvYcSflqY5E-37" value="" style="endArrow=block;dashed=1;endFill=0;endSize=12;html=1;rounded=0;exitX=0.561;exitY=-0.004;exitDx=0;exitDy=0;exitPerimeter=0;entryX=0.269;entryY=1.031;entryDx=0;entryDy=0;entryPerimeter=0;" parent="WIyWlLk6GJQsqaUBKTNV-1" source="123oVY50qHvYcSflqY5E-30" edge="1" target="123oVY50qHvYcSflqY5E-35">
          <mxGeometry width="160" relative="1" as="geometry">
            <mxPoint x="2265" y="-476" as="sourcePoint" />
            <mxPoint x="2325" y="-536" as="targetPoint" />
          </mxGeometry>
        </mxCell>
        <mxCell id="123oVY50qHvYcSflqY5E-38" value="" style="endArrow=block;dashed=1;endFill=0;endSize=12;html=1;rounded=0;entryX=0.371;entryY=1.005;entryDx=0;entryDy=0;entryPerimeter=0;" parent="WIyWlLk6GJQsqaUBKTNV-1" edge="1" target="123oVY50qHvYcSflqY5E-35">
          <mxGeometry width="160" relative="1" as="geometry">
            <mxPoint x="2555" y="-446" as="sourcePoint" />
            <mxPoint x="2345" y="-536" as="targetPoint" />
          </mxGeometry>
        </mxCell>
        <mxCell id="123oVY50qHvYcSflqY5E-39" value="Transfer" style="swimlane;fontStyle=1;align=center;verticalAlign=top;childLayout=stackLayout;horizontal=1;startSize=26;horizontalStack=0;resizeParent=1;resizeParentMax=0;resizeLast=0;collapsible=1;marginBottom=0;whiteSpace=wrap;html=1;" parent="WIyWlLk6GJQsqaUBKTNV-1" vertex="1">
          <mxGeometry x="1647" y="-436" width="250" height="258" as="geometry" />
        </mxCell>
        <mxCell id="123oVY50qHvYcSflqY5E-40" value="-id:int&lt;br&gt;-senderAccountNO:String&lt;br&gt;-status:enum&lt;br&gt;-observers:List&amp;lt;Observer&amp;gt;&lt;br&gt;-paymentStrategy:PaymentStrategy" style="text;strokeColor=none;fillColor=none;align=left;verticalAlign=top;spacingLeft=4;spacingRight=4;overflow=hidden;rotatable=0;points=[[0,0.5],[1,0.5]];portConstraint=eastwest;whiteSpace=wrap;html=1;" parent="123oVY50qHvYcSflqY5E-39" vertex="1">
          <mxGeometry y="26" width="250" height="84" as="geometry" />
        </mxCell>
        <mxCell id="123oVY50qHvYcSflqY5E-41" value="" style="line;strokeWidth=1;fillColor=none;align=left;verticalAlign=middle;spacingTop=-1;spacingLeft=3;spacingRight=3;rotatable=0;labelPosition=right;points=[];portConstraint=eastwest;strokeColor=inherit;" parent="123oVY50qHvYcSflqY5E-39" vertex="1">
          <mxGeometry y="110" width="250" height="8" as="geometry" />
        </mxCell>
        <mxCell id="123oVY50qHvYcSflqY5E-42" value="+Transfer(id: int, sender: String, status: enum, observers: list, strategy: PaymentStrategy)&lt;br&gt;+updateStatus(status:enum);&lt;br&gt;+attachObserver(observer:Observer):void&lt;br style=&quot;border-color: var(--border-color);&quot;&gt;+deattach(observer:Observer):void&lt;br style=&quot;border-color: var(--border-color);&quot;&gt;+notify():void&lt;br&gt;+makepayment(amount :double)" style="text;strokeColor=none;fillColor=none;align=left;verticalAlign=top;spacingLeft=4;spacingRight=4;overflow=hidden;rotatable=0;points=[[0,0.5],[1,0.5]];portConstraint=eastwest;whiteSpace=wrap;html=1;" parent="123oVY50qHvYcSflqY5E-39" vertex="1">
          <mxGeometry y="118" width="250" height="140" as="geometry" />
        </mxCell>
        <mxCell id="123oVY50qHvYcSflqY5E-43" value="" style="endArrow=block;dashed=1;endFill=0;endSize=12;html=1;rounded=0;exitX=0.75;exitY=0;exitDx=0;exitDy=0;entryX=0.028;entryY=1.035;entryDx=0;entryDy=0;entryPerimeter=0;" parent="WIyWlLk6GJQsqaUBKTNV-1" target="123oVY50qHvYcSflqY5E-35" edge="1">
          <mxGeometry width="160" relative="1" as="geometry">
            <mxPoint x="1757" y="-436" as="sourcePoint" />
            <mxPoint x="1994" y="-533" as="targetPoint" />
            <Array as="points">
              <mxPoint x="1757" y="-580" />
            </Array>
          </mxGeometry>
        </mxCell>
        <mxCell id="123oVY50qHvYcSflqY5E-44" value="" style="endArrow=none;html=1;edgeStyle=orthogonalEdgeStyle;rounded=0;exitX=0.527;exitY=1.006;exitDx=0;exitDy=0;exitPerimeter=0;" parent="WIyWlLk6GJQsqaUBKTNV-1" source="LxXwSrXVg-sv-qg34Zbh-211" edge="1">
          <mxGeometry relative="1" as="geometry">
            <mxPoint x="1908" y="-743.67" as="sourcePoint" />
            <mxPoint x="1740" y="-440" as="targetPoint" />
            <Array as="points">
              <mxPoint x="1827" y="-857" />
              <mxPoint x="1790" y="-857" />
              <mxPoint x="1790" y="-663" />
              <mxPoint x="1740" y="-663" />
            </Array>
          </mxGeometry>
        </mxCell>
        <mxCell id="123oVY50qHvYcSflqY5E-47" value="" style="endArrow=none;html=1;edgeStyle=orthogonalEdgeStyle;rounded=0;entryX=0.412;entryY=0.007;entryDx=0;entryDy=0;entryPerimeter=0;exitX=0.783;exitY=1.094;exitDx=0;exitDy=0;exitPerimeter=0;" parent="WIyWlLk6GJQsqaUBKTNV-1" source="LxXwSrXVg-sv-qg34Zbh-211" target="123oVY50qHvYcSflqY5E-22" edge="1">
          <mxGeometry relative="1" as="geometry">
            <mxPoint x="1940" y="-850" as="sourcePoint" />
            <mxPoint x="2065" y="-780" as="targetPoint" />
            <Array as="points">
              <mxPoint x="1942" y="-739" />
              <mxPoint x="2000" y="-739" />
            </Array>
          </mxGeometry>
        </mxCell>
        <mxCell id="123oVY50qHvYcSflqY5E-50" value="" style="endArrow=none;html=1;edgeStyle=orthogonalEdgeStyle;rounded=0;exitX=0.953;exitY=1.077;exitDx=0;exitDy=0;exitPerimeter=0;" parent="WIyWlLk6GJQsqaUBKTNV-1" source="LxXwSrXVg-sv-qg34Zbh-211" edge="1">
          <mxGeometry relative="1" as="geometry">
            <mxPoint x="2060" y="-660" as="sourcePoint" />
            <mxPoint x="2610" y="-450" as="targetPoint" />
            <Array as="points">
              <mxPoint x="2019" y="-660" />
              <mxPoint x="2600" y="-660" />
              <mxPoint x="2600" y="-619" />
              <mxPoint x="2611" y="-619" />
              <mxPoint x="2611" y="-450" />
            </Array>
          </mxGeometry>
        </mxCell>
        <mxCell id="123oVY50qHvYcSflqY5E-54" value="AccountFacade" style="swimlane;fontStyle=1;align=center;verticalAlign=top;childLayout=stackLayout;horizontal=1;startSize=30;horizontalStack=0;resizeParent=1;resizeParentMax=0;resizeLast=0;collapsible=1;marginBottom=0;whiteSpace=wrap;html=1;" parent="WIyWlLk6GJQsqaUBKTNV-1" vertex="1">
          <mxGeometry x="1313" y="-390" width="240" height="210" as="geometry" />
        </mxCell>
        <mxCell id="123oVY50qHvYcSflqY5E-55" value="-accounts:List&amp;lt;Account&amp;gt;&lt;br&gt;-creditcards:List&amp;lt;creditcards&amp;gt;" style="text;strokeColor=none;fillColor=none;align=left;verticalAlign=top;spacingLeft=4;spacingRight=4;overflow=hidden;rotatable=0;points=[[0,0.5],[1,0.5]];portConstraint=eastwest;whiteSpace=wrap;html=1;" parent="123oVY50qHvYcSflqY5E-54" vertex="1">
          <mxGeometry y="30" width="240" height="40" as="geometry" />
        </mxCell>
        <mxCell id="123oVY50qHvYcSflqY5E-56" value="" style="line;strokeWidth=1;fillColor=none;align=left;verticalAlign=middle;spacingTop=-1;spacingLeft=3;spacingRight=3;rotatable=0;labelPosition=right;points=[];portConstraint=eastwest;strokeColor=inherit;" parent="123oVY50qHvYcSflqY5E-54" vertex="1">
          <mxGeometry y="70" width="240" height="8" as="geometry" />
        </mxCell>
        <mxCell id="123oVY50qHvYcSflqY5E-57" value="+AccountFacade(accounts: List, cards: list)&lt;br&gt;+viewAllTransactions():void&lt;br&gt;+viewCreditCardTransactions():void&lt;br&gt;+viewAccountTransactions(): void&lt;br&gt;+viewBills():void&lt;br&gt;+viewCreditCardPayment():void&lt;br&gt;+viewTransfers():void&lt;br&gt;+depositOrWithdraw():void" style="text;strokeColor=none;fillColor=none;align=left;verticalAlign=top;spacingLeft=4;spacingRight=4;overflow=hidden;rotatable=0;points=[[0,0.5],[1,0.5]];portConstraint=eastwest;whiteSpace=wrap;html=1;" parent="123oVY50qHvYcSflqY5E-54" vertex="1">
          <mxGeometry y="78" width="240" height="132" as="geometry" />
        </mxCell>
        <mxCell id="123oVY50qHvYcSflqY5E-58" value="Account" style="swimlane;fontStyle=1;align=center;verticalAlign=top;childLayout=stackLayout;horizontal=1;startSize=26;horizontalStack=0;resizeParent=1;resizeParentMax=0;resizeLast=0;collapsible=1;marginBottom=0;whiteSpace=wrap;html=1;" parent="WIyWlLk6GJQsqaUBKTNV-1" vertex="1">
          <mxGeometry x="773" y="-380" width="390" height="320" as="geometry" />
        </mxCell>
        <mxCell id="123oVY50qHvYcSflqY5E-59" value="-AccountNumber:String&lt;br&gt;-AccountHolderName:String&lt;br&gt;-balance:double&lt;br&gt;-billList:List&amp;lt;bill&amp;gt;&lt;br&gt;.-transferList:List&amp;lt;.Transfer&amp;gt;&lt;br&gt;-accountType:String&lt;br&gt;-depositAndWithdrawList&amp;lt;depositWithdrawTransactions&amp;gt;" style="text;strokeColor=none;fillColor=none;align=left;verticalAlign=top;spacingLeft=4;spacingRight=4;overflow=hidden;rotatable=0;points=[[0,0.5],[1,0.5]];portConstraint=eastwest;whiteSpace=wrap;html=1;" parent="123oVY50qHvYcSflqY5E-58" vertex="1">
          <mxGeometry y="26" width="390" height="114" as="geometry" />
        </mxCell>
        <mxCell id="123oVY50qHvYcSflqY5E-60" value="" style="line;strokeWidth=1;fillColor=none;align=left;verticalAlign=middle;spacingTop=-1;spacingLeft=3;spacingRight=3;rotatable=0;labelPosition=right;points=[];portConstraint=eastwest;strokeColor=inherit;" parent="123oVY50qHvYcSflqY5E-58" vertex="1">
          <mxGeometry y="140" width="390" height="8" as="geometry" />
        </mxCell>
        <mxCell id="123oVY50qHvYcSflqY5E-61" value="+Account(num: String, name: String, balance: double, billList: List, type: String, transactions: List)&lt;br&gt;+addBill(bill:BillPayment):void&lt;br&gt;+addCreditCardPayment(creditcardpayment:CreditCardPayment):void&lt;br&gt;+addTransfer(transfer:Transfer):&lt;br&gt;+viewTransfers():void&lt;br&gt;+viewCreditCardPayment():void&lt;br&gt;+viewBillPayment():void&lt;br&gt;+viewBalance():void&lt;br&gt;+changeAccountType(String type):void&lt;br&gt;+depositOrWithdraw(amount: int, type: string, date: Date)" style="text;strokeColor=none;fillColor=none;align=left;verticalAlign=top;spacingLeft=4;spacingRight=4;overflow=hidden;rotatable=0;points=[[0,0.5],[1,0.5]];portConstraint=eastwest;whiteSpace=wrap;html=1;" parent="123oVY50qHvYcSflqY5E-58" vertex="1">
          <mxGeometry y="148" width="390" height="172" as="geometry" />
        </mxCell>
        <mxCell id="123oVY50qHvYcSflqY5E-62" value="Use" style="endArrow=open;endSize=12;dashed=1;html=1;rounded=0;exitX=0;exitY=0.5;exitDx=0;exitDy=0;entryX=1;entryY=0.5;entryDx=0;entryDy=0;" parent="WIyWlLk6GJQsqaUBKTNV-1" source="123oVY50qHvYcSflqY5E-55" target="123oVY50qHvYcSflqY5E-59" edge="1">
          <mxGeometry width="160" relative="1" as="geometry">
            <mxPoint x="1153" y="-310" as="sourcePoint" />
            <mxPoint x="1313" y="-310" as="targetPoint" />
          </mxGeometry>
        </mxCell>
        <mxCell id="123oVY50qHvYcSflqY5E-63" value="" style="endArrow=diamondThin;endFill=1;endSize=24;html=1;rounded=0;entryX=1.014;entryY=0.93;entryDx=0;entryDy=0;entryPerimeter=0;exitX=0.572;exitY=1.001;exitDx=0;exitDy=0;exitPerimeter=0;" parent="WIyWlLk6GJQsqaUBKTNV-1" source="123oVY50qHvYcSflqY5E-42" target="123oVY50qHvYcSflqY5E-61" edge="1">
          <mxGeometry width="160" relative="1" as="geometry">
            <mxPoint x="1900" y="-140" as="sourcePoint" />
            <mxPoint x="1355" y="-70" as="targetPoint" />
            <Array as="points">
              <mxPoint x="1170" y="-110" />
            </Array>
          </mxGeometry>
        </mxCell>
        <mxCell id="123oVY50qHvYcSflqY5E-64" value="" style="endArrow=diamondThin;endFill=1;endSize=24;html=1;rounded=0;entryX=0.992;entryY=1.066;entryDx=0;entryDy=0;entryPerimeter=0;exitX=0.411;exitY=1.047;exitDx=0;exitDy=0;exitPerimeter=0;" parent="WIyWlLk6GJQsqaUBKTNV-1" source="123oVY50qHvYcSflqY5E-25" target="123oVY50qHvYcSflqY5E-61" edge="1">
          <mxGeometry width="160" relative="1" as="geometry">
            <mxPoint x="2032" y="-80" as="sourcePoint" />
            <mxPoint x="1300" y="-31" as="targetPoint" />
            <Array as="points">
              <mxPoint x="1180" y="-80" />
              <mxPoint x="1170" y="-90" />
            </Array>
          </mxGeometry>
        </mxCell>
        <mxCell id="123oVY50qHvYcSflqY5E-65" value="" style="endArrow=diamondThin;endFill=1;endSize=24;html=1;rounded=0;exitX=0.401;exitY=1.044;exitDx=0;exitDy=0;exitPerimeter=0;" parent="WIyWlLk6GJQsqaUBKTNV-1" source="123oVY50qHvYcSflqY5E-29" edge="1">
          <mxGeometry width="160" relative="1" as="geometry">
            <mxPoint x="2010" y="-121" as="sourcePoint" />
            <mxPoint x="1120" y="-70" as="targetPoint" />
            <Array as="points">
              <mxPoint x="1850" y="-70" />
            </Array>
          </mxGeometry>
        </mxCell>
        <mxCell id="123oVY50qHvYcSflqY5E-66" value="" style="endArrow=diamondThin;endFill=1;endSize=24;html=1;rounded=0;exitX=0.5;exitY=0;exitDx=0;exitDy=0;" parent="WIyWlLk6GJQsqaUBKTNV-1" edge="1">
          <mxGeometry width="160" relative="1" as="geometry">
            <mxPoint x="1433" y="-384" as="sourcePoint" />
            <mxPoint x="1650" y="-1310" as="targetPoint" />
          </mxGeometry>
        </mxCell>
        <mxCell id="123oVY50qHvYcSflqY5E-67" value="" style="endArrow=diamondThin;endFill=1;endSize=24;html=1;rounded=0;entryX=-0.01;entryY=0.654;entryDx=0;entryDy=0;entryPerimeter=0;exitX=0.862;exitY=0.018;exitDx=0;exitDy=0;exitPerimeter=0;" parent="WIyWlLk6GJQsqaUBKTNV-1" source="123oVY50qHvYcSflqY5E-58" target="LxXwSrXVg-sv-qg34Zbh-52" edge="1">
          <mxGeometry width="160" relative="1" as="geometry">
            <mxPoint x="1220" y="-830" as="sourcePoint" />
            <mxPoint x="1380" y="-830" as="targetPoint" />
          </mxGeometry>
        </mxCell>
        <mxCell id="123oVY50qHvYcSflqY5E-70" value="" style="endArrow=open;endFill=1;endSize=12;html=1;rounded=0;exitX=1.019;exitY=0.932;exitDx=0;exitDy=0;exitPerimeter=0;" parent="WIyWlLk6GJQsqaUBKTNV-1" target="LxXwSrXVg-sv-qg34Zbh-133" edge="1">
          <mxGeometry width="160" relative="1" as="geometry">
            <mxPoint x="2102.74" y="-1109.7359999999999" as="sourcePoint" />
            <mxPoint x="2700" y="-1480" as="targetPoint" />
            <Array as="points">
              <mxPoint x="2620" y="-1150" />
            </Array>
          </mxGeometry>
        </mxCell>
        <mxCell id="123oVY50qHvYcSflqY5E-72" value="&lt;font style=&quot;font-size: 17px;&quot;&gt;observes&lt;/font&gt;" style="text;html=1;align=center;verticalAlign=middle;resizable=0;points=[];autosize=1;strokeColor=none;fillColor=none;" parent="WIyWlLk6GJQsqaUBKTNV-1" vertex="1">
          <mxGeometry x="2610" y="-1190" width="90" height="30" as="geometry" />
        </mxCell>
        <mxCell id="123oVY50qHvYcSflqY5E-83" value="&lt;font style=&quot;font-size: 15px;&quot;&gt;notifies&lt;/font&gt;" style="html=1;verticalAlign=bottom;endArrow=block;edgeStyle=elbowEdgeStyle;elbow=vertical;curved=0;rounded=0;exitX=0;exitY=0.5;exitDx=0;exitDy=0;entryX=0.652;entryY=-0.029;entryDx=0;entryDy=0;entryPerimeter=0;" parent="WIyWlLk6GJQsqaUBKTNV-1" source="LxXwSrXVg-sv-qg34Zbh-135" target="LxXwSrXVg-sv-qg34Zbh-123" edge="1">
          <mxGeometry width="80" relative="1" as="geometry">
            <mxPoint x="2270" y="-1760" as="sourcePoint" />
            <mxPoint x="2460" y="-1800" as="targetPoint" />
          </mxGeometry>
        </mxCell>
        <mxCell id="123oVY50qHvYcSflqY5E-93" value="" style="endArrow=classic;html=1;rounded=0;exitX=0;exitY=0;exitDx=0;exitDy=0;entryX=1;entryY=0.5;entryDx=0;entryDy=0;" parent="WIyWlLk6GJQsqaUBKTNV-1" source="123oVY50qHvYcSflqY5E-34" edge="1" target="LxXwSrXVg-sv-qg34Zbh-139">
          <mxGeometry width="50" height="50" relative="1" as="geometry">
            <mxPoint x="2140" y="-930" as="sourcePoint" />
            <mxPoint x="2140" y="-1694" as="targetPoint" />
          </mxGeometry>
        </mxCell>
        <mxCell id="123oVY50qHvYcSflqY5E-94" value="&lt;font style=&quot;font-size: 14px;&quot;&gt;notifies&lt;/font&gt;" style="text;html=1;align=center;verticalAlign=middle;resizable=0;points=[];autosize=1;strokeColor=none;fillColor=none;" parent="WIyWlLk6GJQsqaUBKTNV-1" vertex="1">
          <mxGeometry x="2120" y="-1560" width="70" height="30" as="geometry" />
        </mxCell>
        <mxCell id="123oVY50qHvYcSflqY5E-97" value="Internally" style="swimlane;fontStyle=1;align=center;verticalAlign=top;childLayout=stackLayout;horizontal=1;startSize=26;horizontalStack=0;resizeParent=1;resizeParentMax=0;resizeLast=0;collapsible=1;marginBottom=0;whiteSpace=wrap;html=1;" parent="WIyWlLk6GJQsqaUBKTNV-1" vertex="1">
          <mxGeometry x="1590" y="-10" width="240" height="140" as="geometry" />
        </mxCell>
        <mxCell id="123oVY50qHvYcSflqY5E-98" value="-RecieverAccountno:String" style="text;strokeColor=none;fillColor=none;align=left;verticalAlign=top;spacingLeft=4;spacingRight=4;overflow=hidden;rotatable=0;points=[[0,0.5],[1,0.5]];portConstraint=eastwest;whiteSpace=wrap;html=1;" parent="123oVY50qHvYcSflqY5E-97" vertex="1">
          <mxGeometry y="26" width="240" height="34" as="geometry" />
        </mxCell>
        <mxCell id="123oVY50qHvYcSflqY5E-99" value="" style="line;strokeWidth=1;fillColor=none;align=left;verticalAlign=middle;spacingTop=-1;spacingLeft=3;spacingRight=3;rotatable=0;labelPosition=right;points=[];portConstraint=eastwest;strokeColor=inherit;" parent="123oVY50qHvYcSflqY5E-97" vertex="1">
          <mxGeometry y="60" width="240" height="8" as="geometry" />
        </mxCell>
        <mxCell id="123oVY50qHvYcSflqY5E-100" value="+Internally(accNum: String)&lt;br&gt;+transferMoney(amount:double ,RecieverAccountno:int):void" style="text;strokeColor=none;fillColor=none;align=left;verticalAlign=top;spacingLeft=4;spacingRight=4;overflow=hidden;rotatable=0;points=[[0,0.5],[1,0.5]];portConstraint=eastwest;whiteSpace=wrap;html=1;" parent="123oVY50qHvYcSflqY5E-97" vertex="1">
          <mxGeometry y="68" width="240" height="72" as="geometry" />
        </mxCell>
        <mxCell id="123oVY50qHvYcSflqY5E-101" value="&amp;nbsp;Domestic" style="swimlane;fontStyle=1;align=center;verticalAlign=top;childLayout=stackLayout;horizontal=1;startSize=26;horizontalStack=0;resizeParent=1;resizeParentMax=0;resizeLast=0;collapsible=1;marginBottom=0;whiteSpace=wrap;html=1;" parent="WIyWlLk6GJQsqaUBKTNV-1" vertex="1">
          <mxGeometry x="1860" y="-8" width="230" height="180" as="geometry" />
        </mxCell>
        <mxCell id="123oVY50qHvYcSflqY5E-102" value="-RecieverAccountno:String&lt;br&gt;-Routingno:String" style="text;strokeColor=none;fillColor=none;align=left;verticalAlign=top;spacingLeft=4;spacingRight=4;overflow=hidden;rotatable=0;points=[[0,0.5],[1,0.5]];portConstraint=eastwest;whiteSpace=wrap;html=1;" parent="123oVY50qHvYcSflqY5E-101" vertex="1">
          <mxGeometry y="26" width="230" height="54" as="geometry" />
        </mxCell>
        <mxCell id="123oVY50qHvYcSflqY5E-103" value="" style="line;strokeWidth=1;fillColor=none;align=left;verticalAlign=middle;spacingTop=-1;spacingLeft=3;spacingRight=3;rotatable=0;labelPosition=right;points=[];portConstraint=eastwest;strokeColor=inherit;" parent="123oVY50qHvYcSflqY5E-101" vertex="1">
          <mxGeometry y="80" width="230" height="8" as="geometry" />
        </mxCell>
        <mxCell id="123oVY50qHvYcSflqY5E-104" value="+Domestic(accNum: String, routingNum: String)&lt;br&gt;+transferMoney(amount:double, ,RecieverAcountno:int,&lt;br&gt;Routingno:String):void" style="text;strokeColor=none;fillColor=none;align=left;verticalAlign=top;spacingLeft=4;spacingRight=4;overflow=hidden;rotatable=0;points=[[0,0.5],[1,0.5]];portConstraint=eastwest;whiteSpace=wrap;html=1;" parent="123oVY50qHvYcSflqY5E-101" vertex="1">
          <mxGeometry y="88" width="230" height="92" as="geometry" />
        </mxCell>
        <mxCell id="123oVY50qHvYcSflqY5E-105" value="international" style="swimlane;fontStyle=1;align=center;verticalAlign=top;childLayout=stackLayout;horizontal=1;startSize=26;horizontalStack=0;resizeParent=1;resizeParentMax=0;resizeLast=0;collapsible=1;marginBottom=0;whiteSpace=wrap;html=1;" parent="WIyWlLk6GJQsqaUBKTNV-1" vertex="1">
          <mxGeometry x="2100" y="-8" width="230" height="220" as="geometry" />
        </mxCell>
        <mxCell id="123oVY50qHvYcSflqY5E-106" value="-RecieverAccountno:String&lt;br&gt;-swiftcode:String&lt;br&gt;-CountryName:String&lt;br&gt;-currency:String&lt;br&gt;-Iban: String" style="text;strokeColor=none;fillColor=none;align=left;verticalAlign=top;spacingLeft=4;spacingRight=4;overflow=hidden;rotatable=0;points=[[0,0.5],[1,0.5]];portConstraint=eastwest;whiteSpace=wrap;html=1;" parent="123oVY50qHvYcSflqY5E-105" vertex="1">
          <mxGeometry y="26" width="230" height="84" as="geometry" />
        </mxCell>
        <mxCell id="123oVY50qHvYcSflqY5E-107" value="" style="line;strokeWidth=1;fillColor=none;align=left;verticalAlign=middle;spacingTop=-1;spacingLeft=3;spacingRight=3;rotatable=0;labelPosition=right;points=[];portConstraint=eastwest;strokeColor=inherit;" parent="123oVY50qHvYcSflqY5E-105" vertex="1">
          <mxGeometry y="110" width="230" height="8" as="geometry" />
        </mxCell>
        <mxCell id="123oVY50qHvYcSflqY5E-108" value="+international(accNum: String, swiftCode: String, name: String, currency: String, iban: String)&lt;br&gt;+transferMoney(amount:double ,RecieverAcountno:int,swiftcode:String&lt;br&gt;):void" style="text;strokeColor=none;fillColor=none;align=left;verticalAlign=top;spacingLeft=4;spacingRight=4;overflow=hidden;rotatable=0;points=[[0,0.5],[1,0.5]];portConstraint=eastwest;whiteSpace=wrap;html=1;" parent="123oVY50qHvYcSflqY5E-105" vertex="1">
          <mxGeometry y="118" width="230" height="102" as="geometry" />
        </mxCell>
        <mxCell id="123oVY50qHvYcSflqY5E-109" value="Extends" style="endArrow=block;endSize=16;endFill=0;html=1;rounded=0;" parent="WIyWlLk6GJQsqaUBKTNV-1" target="123oVY50qHvYcSflqY5E-42" edge="1">
          <mxGeometry width="160" relative="1" as="geometry">
            <mxPoint x="1730" y="-10" as="sourcePoint" />
            <mxPoint x="1890" y="-10" as="targetPoint" />
          </mxGeometry>
        </mxCell>
        <mxCell id="123oVY50qHvYcSflqY5E-110" value="Extends" style="endArrow=block;endSize=16;endFill=0;html=1;rounded=0;" parent="WIyWlLk6GJQsqaUBKTNV-1" edge="1">
          <mxGeometry width="160" relative="1" as="geometry">
            <mxPoint x="1940" y="-10" as="sourcePoint" />
            <mxPoint x="1770" y="-168" as="targetPoint" />
          </mxGeometry>
        </mxCell>
        <mxCell id="123oVY50qHvYcSflqY5E-111" value="Extends" style="endArrow=block;endSize=16;endFill=0;html=1;rounded=0;" parent="WIyWlLk6GJQsqaUBKTNV-1" edge="1">
          <mxGeometry width="160" relative="1" as="geometry">
            <mxPoint x="2180" y="-10" as="sourcePoint" />
            <mxPoint x="1790" y="-170" as="targetPoint" />
          </mxGeometry>
        </mxCell>
        <mxCell id="123oVY50qHvYcSflqY5E-113" value="depositWithdrawTransactions" style="swimlane;fontStyle=1;align=center;verticalAlign=top;childLayout=stackLayout;horizontal=1;startSize=26;horizontalStack=0;resizeParent=1;resizeParentMax=0;resizeLast=0;collapsible=1;marginBottom=0;whiteSpace=wrap;html=1;" parent="WIyWlLk6GJQsqaUBKTNV-1" vertex="1">
          <mxGeometry x="2770" y="-420" width="240" height="260" as="geometry" />
        </mxCell>
        <mxCell id="123oVY50qHvYcSflqY5E-114" value="-transactionType: String&lt;br&gt;-transactionDate: Date&lt;br&gt;-transactionAmount: double&lt;br&gt;--status:enum" style="text;strokeColor=none;fillColor=none;align=left;verticalAlign=top;spacingLeft=4;spacingRight=4;overflow=hidden;rotatable=0;points=[[0,0.5],[1,0.5]];portConstraint=eastwest;whiteSpace=wrap;html=1;" parent="123oVY50qHvYcSflqY5E-113" vertex="1">
          <mxGeometry y="26" width="240" height="64" as="geometry" />
        </mxCell>
        <mxCell id="123oVY50qHvYcSflqY5E-115" value="" style="line;strokeWidth=1;fillColor=none;align=left;verticalAlign=middle;spacingTop=-1;spacingLeft=3;spacingRight=3;rotatable=0;labelPosition=right;points=[];portConstraint=eastwest;strokeColor=inherit;" parent="123oVY50qHvYcSflqY5E-113" vertex="1">
          <mxGeometry y="90" width="240" height="8" as="geometry" />
        </mxCell>
        <mxCell id="123oVY50qHvYcSflqY5E-116" value="+depositWithdrawTransactions(type: String, date : Date, amount: double, status: enum)&lt;br&gt;+deposit(account: Account)&lt;br&gt;+withdraw(account: Account)&lt;br&gt;+deposit(creditCard: CreditCard)&lt;br&gt;+withdraw(creditCard: CreditCard)&lt;br&gt;+attachObserver(observer:Observer):void&lt;br style=&quot;border-color: var(--border-color);&quot;&gt;+deattach(observer:Observer):void&lt;br style=&quot;border-color: var(--border-color);&quot;&gt;+notify():void" style="text;strokeColor=none;fillColor=none;align=left;verticalAlign=top;spacingLeft=4;spacingRight=4;overflow=hidden;rotatable=0;points=[[0,0.5],[1,0.5]];portConstraint=eastwest;whiteSpace=wrap;html=1;" parent="123oVY50qHvYcSflqY5E-113" vertex="1">
          <mxGeometry y="98" width="240" height="162" as="geometry" />
        </mxCell>
        <mxCell id="123oVY50qHvYcSflqY5E-130" value="" style="endArrow=block;dashed=1;endFill=0;endSize=12;html=1;rounded=0;exitX=0.438;exitY=-0.018;exitDx=0;exitDy=0;exitPerimeter=0;" parent="WIyWlLk6GJQsqaUBKTNV-1" source="123oVY50qHvYcSflqY5E-113" edge="1" target="123oVY50qHvYcSflqY5E-35">
          <mxGeometry width="160" relative="1" as="geometry">
            <mxPoint x="2830" y="-440" as="sourcePoint" />
            <mxPoint x="2460" y="-540" as="targetPoint" />
          </mxGeometry>
        </mxCell>
        <mxCell id="123oVY50qHvYcSflqY5E-131" value="&lt;p style=&quot;border-color: var(--border-color); text-decoration-line: underline; margin: 4px 0px 0px; text-align: center;&quot;&gt;&lt;b style=&quot;border-color: var(--border-color);&quot;&gt;&amp;lt;&amp;lt;enumeration&amp;gt;&amp;gt;&lt;/b&gt;&lt;/p&gt;&lt;p style=&quot;border-color: var(--border-color); text-decoration-line: underline; margin: 4px 0px 0px; text-align: center;&quot;&gt;&lt;b&gt;ReminderTypes&lt;/b&gt;&lt;/p&gt;&lt;hr style=&quot;border-color: var(--border-color);&quot;&gt;&lt;p style=&quot;border-color: var(--border-color); margin: 0px 0px 0px 8px;&quot;&gt;Gas bill&lt;/p&gt;&lt;p style=&quot;border-color: var(--border-color); margin: 0px 0px 0px 8px;&quot;&gt;Electricity bill&lt;/p&gt;&lt;p style=&quot;border-color: var(--border-color); margin: 0px 0px 0px 8px;&quot;&gt;Telephone bill&lt;/p&gt;&lt;p style=&quot;border-color: var(--border-color); margin: 0px 0px 0px 8px;&quot;&gt;Loan installment&lt;/p&gt;&lt;p style=&quot;border-color: var(--border-color); margin: 0px 0px 0px 8px;&quot;&gt;Credit card bill&lt;/p&gt;&lt;p style=&quot;border-color: var(--border-color); margin: 0px 0px 0px 8px;&quot;&gt;Water bill&lt;/p&gt;" style="verticalAlign=top;align=left;overflow=fill;fontSize=12;fontFamily=Helvetica;html=1;whiteSpace=wrap;" parent="WIyWlLk6GJQsqaUBKTNV-1" vertex="1">
          <mxGeometry x="800" y="-1732" width="160" height="160" as="geometry" />
        </mxCell>
        <mxCell id="123oVY50qHvYcSflqY5E-138" value="Notification" style="swimlane;fontStyle=1;align=center;verticalAlign=top;childLayout=stackLayout;horizontal=1;startSize=26;horizontalStack=0;resizeParent=1;resizeParentMax=0;resizeLast=0;collapsible=1;marginBottom=0;whiteSpace=wrap;html=1;" parent="WIyWlLk6GJQsqaUBKTNV-1" vertex="1">
          <mxGeometry x="2484" y="-2016" width="320" height="132" as="geometry" />
        </mxCell>
        <mxCell id="123oVY50qHvYcSflqY5E-139" value="-notificationId:int&lt;br&gt;-message:String&lt;br&gt;-date:Date" style="text;strokeColor=none;fillColor=none;align=left;verticalAlign=top;spacingLeft=4;spacingRight=4;overflow=hidden;rotatable=0;points=[[0,0.5],[1,0.5]];portConstraint=eastwest;whiteSpace=wrap;html=1;" parent="123oVY50qHvYcSflqY5E-138" vertex="1">
          <mxGeometry y="26" width="320" height="64" as="geometry" />
        </mxCell>
        <mxCell id="123oVY50qHvYcSflqY5E-140" value="" style="line;strokeWidth=1;fillColor=none;align=left;verticalAlign=middle;spacingTop=-1;spacingLeft=3;spacingRight=3;rotatable=0;labelPosition=right;points=[];portConstraint=eastwest;strokeColor=inherit;" parent="123oVY50qHvYcSflqY5E-138" vertex="1">
          <mxGeometry y="90" width="320" height="8" as="geometry" />
        </mxCell>
        <mxCell id="123oVY50qHvYcSflqY5E-141" value="+Notification(id: int, message: String, date: Date)&lt;br&gt;+setMessage(message:String):void" style="text;strokeColor=none;fillColor=none;align=left;verticalAlign=top;spacingLeft=4;spacingRight=4;overflow=hidden;rotatable=0;points=[[0,0.5],[1,0.5]];portConstraint=eastwest;whiteSpace=wrap;html=1;" parent="123oVY50qHvYcSflqY5E-138" vertex="1">
          <mxGeometry y="98" width="320" height="34" as="geometry" />
        </mxCell>
        <mxCell id="123oVY50qHvYcSflqY5E-153" value="&lt;p style=&quot;margin:0px;margin-top:4px;text-align:center;&quot;&gt;&lt;b&gt;issues&lt;/b&gt;&lt;/p&gt;&lt;hr size=&quot;1&quot;&gt;&lt;p style=&quot;margin:0px;margin-left:4px;&quot;&gt;- id : int&amp;nbsp;&lt;/p&gt;&lt;p style=&quot;margin:0px;margin-left:4px;&quot;&gt;- reporter: string&lt;/p&gt;&lt;p style=&quot;margin:0px;margin-left:4px;&quot;&gt;- description - string&amp;nbsp;&lt;/p&gt;&lt;p style=&quot;margin:0px;margin-left:4px;&quot;&gt;- isResolved - boolean&lt;/p&gt;&lt;p style=&quot;margin:0px;margin-left:4px;&quot;&gt;- date : Date&lt;/p&gt;&lt;p style=&quot;margin:0px;margin-left:4px;&quot;&gt;-clients: List&amp;lt;ObserverforAnnouncments&amp;gt;&lt;br style=&quot;border-color: var(--border-color);&quot;&gt;&lt;/p&gt;&lt;hr size=&quot;1&quot;&gt;+issues(id: int, reporter: string, isResolved: boolean, date: Date, clients: List)&lt;p style=&quot;margin:0px;margin-left:4px;&quot;&gt;+ getDetails(): String&lt;/p&gt;&lt;p style=&quot;margin:0px;margin-left:4px;&quot;&gt;+reportIssue(): void&amp;nbsp;&lt;br&gt;&lt;/p&gt;&lt;p style=&quot;margin:0px;margin-left:4px;&quot;&gt;+attachObserver(observer:Observer):void&lt;br style=&quot;border-color: var(--border-color);&quot;&gt;+deattach(observer:Observer):void&lt;br style=&quot;border-color: var(--border-color);&quot;&gt;+notify():void&lt;br&gt;&lt;/p&gt;&lt;p style=&quot;margin:0px;margin-left:4px;&quot;&gt;&amp;nbsp;&lt;/p&gt;" style="verticalAlign=top;align=left;overflow=fill;fontSize=12;fontFamily=Helvetica;html=1;whiteSpace=wrap;" parent="WIyWlLk6GJQsqaUBKTNV-1" vertex="1">
          <mxGeometry x="2966" y="-1700" width="234" height="240" as="geometry" />
        </mxCell>
        <mxCell id="123oVY50qHvYcSflqY5E-154" value="technicalIssues" style="swimlane;fontStyle=1;align=center;verticalAlign=top;childLayout=stackLayout;horizontal=1;startSize=26;horizontalStack=0;resizeParent=1;resizeParentMax=0;resizeLast=0;collapsible=1;marginBottom=0;whiteSpace=wrap;html=1;" parent="WIyWlLk6GJQsqaUBKTNV-1" vertex="1">
          <mxGeometry x="2756" y="-1391" width="160" height="130" as="geometry" />
        </mxCell>
        <mxCell id="123oVY50qHvYcSflqY5E-155" value="-browser - string&lt;br&gt;&lt;br&gt;&amp;nbsp;" style="text;strokeColor=none;fillColor=none;align=left;verticalAlign=top;spacingLeft=4;spacingRight=4;overflow=hidden;rotatable=0;points=[[0,0.5],[1,0.5]];portConstraint=eastwest;whiteSpace=wrap;html=1;" parent="123oVY50qHvYcSflqY5E-154" vertex="1">
          <mxGeometry y="26" width="160" height="26" as="geometry" />
        </mxCell>
        <mxCell id="123oVY50qHvYcSflqY5E-156" value="" style="line;strokeWidth=1;fillColor=none;align=left;verticalAlign=middle;spacingTop=-1;spacingLeft=3;spacingRight=3;rotatable=0;labelPosition=right;points=[];portConstraint=eastwest;strokeColor=inherit;" parent="123oVY50qHvYcSflqY5E-154" vertex="1">
          <mxGeometry y="52" width="160" height="8" as="geometry" />
        </mxCell>
        <mxCell id="123oVY50qHvYcSflqY5E-157" value="+technicalIssues(browser: String)&lt;br&gt;+submitIssue(): void&lt;br&gt;&lt;p style=&quot;border-color: var(--border-color); margin: 0px 0px 0px 4px;&quot;&gt;+ getDetails(): String&lt;/p&gt;&amp;nbsp;" style="text;strokeColor=none;fillColor=none;align=left;verticalAlign=top;spacingLeft=4;spacingRight=4;overflow=hidden;rotatable=0;points=[[0,0.5],[1,0.5]];portConstraint=eastwest;whiteSpace=wrap;html=1;" parent="123oVY50qHvYcSflqY5E-154" vertex="1">
          <mxGeometry y="60" width="160" height="70" as="geometry" />
        </mxCell>
        <mxCell id="123oVY50qHvYcSflqY5E-158" value="financialIssues&amp;nbsp;" style="swimlane;fontStyle=1;align=center;verticalAlign=top;childLayout=stackLayout;horizontal=1;startSize=26;horizontalStack=0;resizeParent=1;resizeParentMax=0;resizeLast=0;collapsible=1;marginBottom=0;whiteSpace=wrap;html=1;" parent="WIyWlLk6GJQsqaUBKTNV-1" vertex="1">
          <mxGeometry x="3183" y="-1393" width="160" height="130" as="geometry" />
        </mxCell>
        <mxCell id="123oVY50qHvYcSflqY5E-159" value="- account account&amp;nbsp;" style="text;strokeColor=none;fillColor=none;align=left;verticalAlign=top;spacingLeft=4;spacingRight=4;overflow=hidden;rotatable=0;points=[[0,0.5],[1,0.5]];portConstraint=eastwest;whiteSpace=wrap;html=1;" parent="123oVY50qHvYcSflqY5E-158" vertex="1">
          <mxGeometry y="26" width="160" height="26" as="geometry" />
        </mxCell>
        <mxCell id="123oVY50qHvYcSflqY5E-160" value="" style="line;strokeWidth=1;fillColor=none;align=left;verticalAlign=middle;spacingTop=-1;spacingLeft=3;spacingRight=3;rotatable=0;labelPosition=right;points=[];portConstraint=eastwest;strokeColor=inherit;" parent="123oVY50qHvYcSflqY5E-158" vertex="1">
          <mxGeometry y="52" width="160" height="8" as="geometry" />
        </mxCell>
        <mxCell id="123oVY50qHvYcSflqY5E-161" value="+financialIssues(account: Account)&lt;br&gt;+submitIssue(): void&lt;br&gt;&lt;p style=&quot;border-color: var(--border-color); margin: 0px 0px 0px 4px;&quot;&gt;+ getDetails(): String&lt;/p&gt;&lt;div&gt;&lt;br&gt;&lt;/div&gt;" style="text;strokeColor=none;fillColor=none;align=left;verticalAlign=top;spacingLeft=4;spacingRight=4;overflow=hidden;rotatable=0;points=[[0,0.5],[1,0.5]];portConstraint=eastwest;whiteSpace=wrap;html=1;" parent="123oVY50qHvYcSflqY5E-158" vertex="1">
          <mxGeometry y="60" width="160" height="70" as="geometry" />
        </mxCell>
        <mxCell id="123oVY50qHvYcSflqY5E-162" value="Extends" style="endArrow=block;endSize=16;endFill=0;html=1;rounded=0;exitX=0.706;exitY=-0.035;exitDx=0;exitDy=0;exitPerimeter=0;" parent="WIyWlLk6GJQsqaUBKTNV-1" source="123oVY50qHvYcSflqY5E-154" target="123oVY50qHvYcSflqY5E-153" edge="1">
          <mxGeometry x="0.125" y="10" width="160" relative="1" as="geometry">
            <mxPoint x="3026" y="-1251" as="sourcePoint" />
            <mxPoint x="3016" y="-1381" as="targetPoint" />
            <Array as="points" />
            <mxPoint as="offset" />
          </mxGeometry>
        </mxCell>
        <mxCell id="123oVY50qHvYcSflqY5E-163" value="Extends" style="endArrow=block;endSize=16;endFill=0;html=1;rounded=0;exitX=0.706;exitY=-0.035;exitDx=0;exitDy=0;exitPerimeter=0;" parent="WIyWlLk6GJQsqaUBKTNV-1" target="123oVY50qHvYcSflqY5E-153" edge="1">
          <mxGeometry x="0.125" y="10" width="160" relative="1" as="geometry">
            <mxPoint x="3186" y="-1391" as="sourcePoint" />
            <mxPoint x="3291" y="-1488" as="targetPoint" />
            <Array as="points" />
            <mxPoint as="offset" />
          </mxGeometry>
        </mxCell>
        <mxCell id="123oVY50qHvYcSflqY5E-164" value="" style="endArrow=block;dashed=1;endFill=0;endSize=12;html=1;rounded=0;exitX=0.387;exitY=-0.018;exitDx=0;exitDy=0;entryX=0.656;entryY=0.977;entryDx=0;entryDy=0;entryPerimeter=0;exitPerimeter=0;" parent="WIyWlLk6GJQsqaUBKTNV-1" source="123oVY50qHvYcSflqY5E-153" target="LxXwSrXVg-sv-qg34Zbh-136" edge="1">
          <mxGeometry width="160" relative="1" as="geometry">
            <mxPoint x="3000" y="-1631" as="sourcePoint" />
            <mxPoint x="3367" y="-1719" as="targetPoint" />
            <Array as="points">
              <mxPoint x="3080" y="-1720" />
            </Array>
          </mxGeometry>
        </mxCell>
        <mxCell id="123oVY50qHvYcSflqY5E-165" value="Use" style="endArrow=open;endSize=12;dashed=1;html=1;rounded=0;entryX=0.692;entryY=0.995;entryDx=0;entryDy=0;entryPerimeter=0;" parent="WIyWlLk6GJQsqaUBKTNV-1" source="123oVY50qHvYcSflqY5E-54" edge="1" target="LxXwSrXVg-sv-qg34Zbh-153">
          <mxGeometry width="160" relative="1" as="geometry">
            <mxPoint x="1200" y="-820" as="sourcePoint" />
            <mxPoint x="990" y="-860" as="targetPoint" />
          </mxGeometry>
        </mxCell>
        <mxCell id="A688QEJ1pjvRzlGdGkd3-2" value="&lt;font style=&quot;font-size: 18px;&quot;&gt;0:*&lt;/font&gt;" style="text;html=1;align=center;verticalAlign=middle;resizable=0;points=[];autosize=1;strokeColor=none;fillColor=none;" vertex="1" parent="WIyWlLk6GJQsqaUBKTNV-1">
          <mxGeometry x="1125" y="-476" width="50" height="40" as="geometry" />
        </mxCell>
        <mxCell id="A688QEJ1pjvRzlGdGkd3-3" value="" style="endArrow=diamondThin;endFill=1;endSize=24;html=1;rounded=0;entryX=-0.009;entryY=0.426;entryDx=0;entryDy=0;entryPerimeter=0;exitX=0.997;exitY=0.817;exitDx=0;exitDy=0;exitPerimeter=0;" edge="1" parent="WIyWlLk6GJQsqaUBKTNV-1" source="LxXwSrXVg-sv-qg34Zbh-151" target="LxXwSrXVg-sv-qg34Zbh-52">
          <mxGeometry width="160" relative="1" as="geometry">
            <mxPoint x="1110" y="-1060" as="sourcePoint" />
            <mxPoint x="1665" y="-1104" as="targetPoint" />
          </mxGeometry>
        </mxCell>
        <mxCell id="A688QEJ1pjvRzlGdGkd3-4" value="&lt;font style=&quot;font-size: 18px;&quot;&gt;0:*&lt;/font&gt;" style="text;html=1;align=center;verticalAlign=middle;resizable=0;points=[];autosize=1;strokeColor=none;fillColor=none;" vertex="1" parent="WIyWlLk6GJQsqaUBKTNV-1">
          <mxGeometry x="1155" y="-1100" width="50" height="40" as="geometry" />
        </mxCell>
        <mxCell id="A688QEJ1pjvRzlGdGkd3-5" value="" style="endArrow=none;html=1;edgeStyle=orthogonalEdgeStyle;rounded=0;entryX=0.371;entryY=0.019;entryDx=0;entryDy=0;entryPerimeter=0;" edge="1" parent="WIyWlLk6GJQsqaUBKTNV-1" target="LxXwSrXVg-sv-qg34Zbh-41">
          <mxGeometry relative="1" as="geometry">
            <mxPoint x="960" y="-1590" as="sourcePoint" />
            <mxPoint x="1120" y="-1590" as="targetPoint" />
          </mxGeometry>
        </mxCell>
        <mxCell id="A688QEJ1pjvRzlGdGkd3-6" value="1" style="edgeLabel;resizable=0;html=1;align=left;verticalAlign=bottom;" connectable="0" vertex="1" parent="A688QEJ1pjvRzlGdGkd3-5">
          <mxGeometry x="-1" relative="1" as="geometry" />
        </mxCell>
        <mxCell id="A688QEJ1pjvRzlGdGkd3-7" value="1" style="edgeLabel;resizable=0;html=1;align=right;verticalAlign=bottom;" connectable="0" vertex="1" parent="A688QEJ1pjvRzlGdGkd3-5">
          <mxGeometry x="1" relative="1" as="geometry">
            <mxPoint y="-6" as="offset" />
          </mxGeometry>
        </mxCell>
        <mxCell id="A688QEJ1pjvRzlGdGkd3-8" value="&lt;p style=&quot;border-color: var(--border-color); text-decoration-line: underline; margin: 4px 0px 0px; text-align: center;&quot;&gt;&lt;b style=&quot;border-color: var(--border-color);&quot;&gt;&amp;lt;&amp;lt;enumeration&amp;gt;&amp;gt;&lt;/b&gt;&lt;/p&gt;&lt;p style=&quot;border-color: var(--border-color); text-decoration-line: underline; margin: 4px 0px 0px; text-align: center;&quot;&gt;&lt;b style=&quot;border-color: var(--border-color);&quot;&gt;Status&lt;/b&gt;&lt;/p&gt;&lt;hr style=&quot;border-color: var(--border-color);&quot;&gt;&lt;p style=&quot;border-color: var(--border-color); margin: 0px 0px 0px 8px;&quot;&gt;Approved&lt;/p&gt;&lt;p style=&quot;border-color: var(--border-color); margin: 0px 0px 0px 8px;&quot;&gt;Pending&lt;/p&gt;&lt;p style=&quot;border-color: var(--border-color); margin: 0px 0px 0px 8px;&quot;&gt;Rejected&lt;/p&gt;" style="verticalAlign=top;align=left;overflow=fill;fontSize=12;fontFamily=Helvetica;html=1;whiteSpace=wrap;" vertex="1" parent="WIyWlLk6GJQsqaUBKTNV-1">
          <mxGeometry x="2780" y="-1170" width="160" height="110" as="geometry" />
        </mxCell>
        <mxCell id="A688QEJ1pjvRzlGdGkd3-9" value="" style="endArrow=none;html=1;edgeStyle=orthogonalEdgeStyle;rounded=0;entryX=0.381;entryY=0.025;entryDx=0;entryDy=0;entryPerimeter=0;" edge="1" parent="WIyWlLk6GJQsqaUBKTNV-1" target="A688QEJ1pjvRzlGdGkd3-8">
          <mxGeometry relative="1" as="geometry">
            <mxPoint x="2580" y="-1220" as="sourcePoint" />
            <mxPoint x="2740" y="-1220" as="targetPoint" />
          </mxGeometry>
        </mxCell>
        <mxCell id="A688QEJ1pjvRzlGdGkd3-10" value="1" style="edgeLabel;resizable=0;html=1;align=left;verticalAlign=bottom;" connectable="0" vertex="1" parent="A688QEJ1pjvRzlGdGkd3-9">
          <mxGeometry x="-1" relative="1" as="geometry" />
        </mxCell>
        <mxCell id="A688QEJ1pjvRzlGdGkd3-11" value="1" style="edgeLabel;resizable=0;html=1;align=right;verticalAlign=bottom;" connectable="0" vertex="1" parent="A688QEJ1pjvRzlGdGkd3-9">
          <mxGeometry x="1" relative="1" as="geometry" />
        </mxCell>
        <mxCell id="A688QEJ1pjvRzlGdGkd3-12" value="&lt;p style=&quot;margin:0px;margin-top:4px;text-align:center;text-decoration:underline;&quot;&gt;&lt;b&gt;&amp;lt;&amp;lt;enumeration&amp;gt;&amp;gt;&lt;/b&gt;&lt;/p&gt;&lt;p style=&quot;margin:0px;margin-top:4px;text-align:center;text-decoration:underline;&quot;&gt;&lt;b&gt;LoanType&lt;/b&gt;&lt;/p&gt;&lt;hr&gt;&lt;p style=&quot;margin:0px;margin-left:8px;&quot;&gt;Personal&lt;/p&gt;&lt;p style=&quot;margin:0px;margin-left:8px;&quot;&gt;Car&lt;/p&gt;" style="verticalAlign=top;align=left;overflow=fill;fontSize=12;fontFamily=Helvetica;html=1;whiteSpace=wrap;" vertex="1" parent="WIyWlLk6GJQsqaUBKTNV-1">
          <mxGeometry x="2540" y="30" width="160" height="90" as="geometry" />
        </mxCell>
        <mxCell id="A688QEJ1pjvRzlGdGkd3-13" value="" style="endArrow=none;html=1;edgeStyle=orthogonalEdgeStyle;rounded=0;exitX=0.663;exitY=1.019;exitDx=0;exitDy=0;exitPerimeter=0;entryX=0.5;entryY=0;entryDx=0;entryDy=0;" edge="1" parent="WIyWlLk6GJQsqaUBKTNV-1" source="123oVY50qHvYcSflqY5E-33" target="A688QEJ1pjvRzlGdGkd3-12">
          <mxGeometry relative="1" as="geometry">
            <mxPoint x="2370" y="14" as="sourcePoint" />
            <mxPoint x="2610" y="14.469999999999999" as="targetPoint" />
            <Array as="points">
              <mxPoint x="2347" y="-10" />
              <mxPoint x="2610" y="-10" />
              <mxPoint x="2610" y="30" />
            </Array>
          </mxGeometry>
        </mxCell>
        <mxCell id="A688QEJ1pjvRzlGdGkd3-14" value="0..*" style="edgeLabel;resizable=0;html=1;align=left;verticalAlign=bottom;" connectable="0" vertex="1" parent="A688QEJ1pjvRzlGdGkd3-13">
          <mxGeometry x="-1" relative="1" as="geometry">
            <mxPoint y="25" as="offset" />
          </mxGeometry>
        </mxCell>
        <mxCell id="A688QEJ1pjvRzlGdGkd3-15" value="1" style="edgeLabel;resizable=0;html=1;align=right;verticalAlign=bottom;" connectable="0" vertex="1" parent="A688QEJ1pjvRzlGdGkd3-13">
          <mxGeometry x="1" relative="1" as="geometry" />
        </mxCell>
        <mxCell id="A688QEJ1pjvRzlGdGkd3-16" value="&lt;p style=&quot;border-color: var(--border-color); text-decoration-line: underline; margin: 4px 0px 0px; text-align: center;&quot;&gt;&lt;b style=&quot;border-color: var(--border-color);&quot;&gt;&amp;lt;&amp;lt;enumeration&amp;gt;&amp;gt;&lt;/b&gt;&lt;/p&gt;&lt;p style=&quot;border-color: var(--border-color); text-decoration-line: underline; margin: 4px 0px 0px; text-align: center;&quot;&gt;&lt;b&gt;CCPaymentType&lt;/b&gt;&lt;/p&gt;&lt;hr style=&quot;border-color: var(--border-color);&quot;&gt;&lt;p style=&quot;border-color: var(--border-color); margin: 0px 0px 0px 8px;&quot;&gt;Partially&lt;/p&gt;&lt;p style=&quot;border-color: var(--border-color); margin: 0px 0px 0px 8px;&quot;&gt;fully&lt;/p&gt;" style="verticalAlign=top;align=left;overflow=fill;fontSize=12;fontFamily=Helvetica;html=1;whiteSpace=wrap;" vertex="1" parent="WIyWlLk6GJQsqaUBKTNV-1">
          <mxGeometry x="2780" y="-630" width="160" height="110" as="geometry" />
        </mxCell>
        <mxCell id="A688QEJ1pjvRzlGdGkd3-17" value="" style="endArrow=none;html=1;edgeStyle=orthogonalEdgeStyle;rounded=0;exitX=0.75;exitY=0;exitDx=0;exitDy=0;entryX=0;entryY=0.5;entryDx=0;entryDy=0;" edge="1" parent="WIyWlLk6GJQsqaUBKTNV-1" source="123oVY50qHvYcSflqY5E-26" target="A688QEJ1pjvRzlGdGkd3-16">
          <mxGeometry relative="1" as="geometry">
            <mxPoint x="2620" y="-570" as="sourcePoint" />
            <mxPoint x="2670" y="-570" as="targetPoint" />
          </mxGeometry>
        </mxCell>
        <mxCell id="A688QEJ1pjvRzlGdGkd3-18" value="1" style="edgeLabel;resizable=0;html=1;align=left;verticalAlign=bottom;" connectable="0" vertex="1" parent="A688QEJ1pjvRzlGdGkd3-17">
          <mxGeometry x="-1" relative="1" as="geometry">
            <mxPoint y="-14" as="offset" />
          </mxGeometry>
        </mxCell>
        <mxCell id="A688QEJ1pjvRzlGdGkd3-19" value="1" style="edgeLabel;resizable=0;html=1;align=right;verticalAlign=bottom;" connectable="0" vertex="1" parent="A688QEJ1pjvRzlGdGkd3-17">
          <mxGeometry x="1" relative="1" as="geometry">
            <mxPoint x="-10" y="-5" as="offset" />
          </mxGeometry>
        </mxCell>
        <mxCell id="A688QEJ1pjvRzlGdGkd3-20" value="1" style="endArrow=open;html=1;endSize=12;startArrow=diamondThin;startSize=14;startFill=1;edgeStyle=orthogonalEdgeStyle;align=left;verticalAlign=bottom;rounded=0;" edge="1" parent="WIyWlLk6GJQsqaUBKTNV-1" source="LxXwSrXVg-sv-qg34Zbh-135" target="123oVY50qHvYcSflqY5E-139">
          <mxGeometry x="-0.7862" y="-9" relative="1" as="geometry">
            <mxPoint x="2809.76" y="-1961" as="sourcePoint" />
            <mxPoint x="2790" y="-1942" as="targetPoint" />
            <Array as="points">
              <mxPoint x="2872" y="-1961" />
              <mxPoint x="2872" y="-1942" />
            </Array>
            <mxPoint as="offset" />
          </mxGeometry>
        </mxCell>
        <mxCell id="A688QEJ1pjvRzlGdGkd3-29" value="" style="endArrow=none;html=1;edgeStyle=orthogonalEdgeStyle;rounded=0;exitX=0.306;exitY=1.07;exitDx=0;exitDy=0;exitPerimeter=0;" edge="1" parent="WIyWlLk6GJQsqaUBKTNV-1" source="123oVY50qHvYcSflqY5E-61" target="123oVY50qHvYcSflqY5E-33">
          <mxGeometry relative="1" as="geometry">
            <mxPoint x="1680" y="383" as="sourcePoint" />
            <mxPoint x="1840" y="383" as="targetPoint" />
            <Array as="points">
              <mxPoint x="1350" y="-48" />
              <mxPoint x="1350" y="383" />
              <mxPoint x="2410" y="383" />
            </Array>
          </mxGeometry>
        </mxCell>
        <mxCell id="A688QEJ1pjvRzlGdGkd3-30" value="1" style="edgeLabel;resizable=0;html=1;align=left;verticalAlign=bottom;" connectable="0" vertex="1" parent="A688QEJ1pjvRzlGdGkd3-29">
          <mxGeometry x="-1" relative="1" as="geometry" />
        </mxCell>
        <mxCell id="A688QEJ1pjvRzlGdGkd3-31" value="child" style="edgeLabel;resizable=0;html=1;align=right;verticalAlign=bottom;" connectable="0" vertex="1" parent="A688QEJ1pjvRzlGdGkd3-29">
          <mxGeometry x="1" relative="1" as="geometry" />
        </mxCell>
      </root>
    </mxGraphModel>
  </diagram>
</mxfile>
